*
*
G04 PADS VX.2 Build Number: 5060570 generated Gerber (RS-274-X) file*
G04 PC Version=2.1*
*
%IN "MOS-Tester_4L_P.pcb"*%
*
%MOIN*%
*
%FSLAX35Y35*%
*
*
*
*
G04 PC Standard Apertures*
*
*
G04 Thermal Relief Aperture macro.*
%AMTER*
1,1,$1,0,0*
1,0,$1-$2,0,0*
21,0,$3,$4,0,0,45*
21,0,$3,$4,0,0,135*
%
*
*
G04 Annular Aperture macro.*
%AMANN*
1,1,$1,0,0*
1,0,$2,0,0*
%
*
*
G04 Odd Aperture macro.*
%AMODD*
1,1,$1,0,0*
1,0,$1-0.005,0,0*
%
*
*
G04 PC Custom Aperture Macros*
*
*
*
*
*
*
G04 PC Aperture Table*
*
%ADD010C,0.001*%
%ADD011R,0.06X0.05*%
%ADD012R,0.11811X0.11811*%
%ADD013C,0.11811*%
%ADD014R,0.04331X0.03543*%
%ADD015R,0.05X0.036*%
%ADD016R,0.03543X0.04331*%
%ADD017R,0.036X0.05*%
%ADD018R,0.05X0.06*%
%ADD019R,0.07087X0.024*%
%ADD020R,0.09843X0.13386*%
%ADD021R,0.025X0.08*%
%ADD022O,0.025X0.08*%
%ADD023R,0.08X0.025*%
%ADD024O,0.08X0.025*%
%ADD025R,0.024X0.074*%
%ADD026O,0.024X0.074*%
%ADD027R,0.07X0.06*%
%ADD028O,0.00984X0.05906*%
%ADD029R,0.04X0.03*%
%ADD030C,0.06*%
%ADD031C,0.05906*%
%ADD032R,0.1X0.06*%
%ADD033R,0.28X0.28*%
%ADD034R,0.045X0.065*%
%ADD035R,0.12992X0.065*%
%ADD036R,0.045X0.075*%
%ADD037R,0.08268X0.11811*%
%ADD038R,0.15748X0.3937*%
%ADD039R,0.045X0.15*%
%ADD040O,0.045X0.15*%
%ADD041R,0.44X0.5*%
%ADD042R,0.06X0.06*%
%ADD043R,0.15X0.11*%
%ADD044R,0.03X0.04*%
%ADD045R,0.16X0.06*%
%ADD046C,0.08*%
%ADD047R,0.06X0.07*%
%ADD048R,0.068X0.068*%
%ADD049C,0.068*%
%ADD050C,0.15*%
%ADD051C,0.01*%
%ADD052C,0.008*%
%ADD053C,0.015*%
%ADD054C,0.04*%
%ADD055C,0.03*%
%ADD056C,0.02*%
%ADD057C,0.025*%
%ADD058C,0.05*%
%ADD059C,0.012*%
%ADD060C,0.045*%
%ADD061C,0.024*%
%ADD062C,0.037*%
*
*
*
*
G04 PC Circuitry*
G04 Layer Name MOS-Tester_4L_P.pcb - circuitry*
%LPD*%
*
*
G04 PC Custom Flashes*
G04 Layer Name MOS-Tester_4L_P.pcb - flashes*
%LPD*%
*
*
G04 PC Circuitry*
G04 Layer Name MOS-Tester_4L_P.pcb - circuitry*
%LPD*%
*
G54D10*
G54D11*
G01X2104900Y1597554D03*
X2095900D03*
X2128673Y1571974D03*
X2137673D03*
X2115200Y1807454D03*
X2124200D03*
X2225200Y1311554D03*
X2234200D03*
X2233900Y1321554D03*
X2224900D03*
X2233700Y1332854D03*
X2224700D03*
X2231000Y1469954D03*
X2222000D03*
X2221900Y1619454D03*
X2230900D03*
Y1597454D03*
X2221900D03*
X2221800Y1491954D03*
X2230800D03*
X2221600Y1536854D03*
X2230600D03*
Y1514854D03*
X2221600D03*
X2219200Y1875954D03*
X2228200D03*
X2219200Y1850954D03*
X2228200D03*
X2228000Y1828954D03*
X2219000D03*
Y1773554D03*
X2228000D03*
Y1751554D03*
X2219000D03*
X2227800Y1886854D03*
X2218800D03*
X2186900Y1870154D03*
X2195900D03*
X2195700Y1908254D03*
X2186700D03*
X2170400Y1525954D03*
X2179400D03*
X2170200Y1536854D03*
X2179200D03*
X2170100Y1491954D03*
X2179100D03*
X2170100Y1481354D03*
X2179100D03*
Y1469954D03*
X2170100D03*
X2179000Y1514854D03*
X2170000D03*
X2178800Y1597454D03*
X2169800D03*
X2169700Y1619554D03*
X2178700D03*
X2169500Y1608754D03*
X2178500D03*
X2168100Y1773554D03*
X2177100D03*
X2168100Y1762454D03*
X2177100D03*
Y1751554D03*
X2168100D03*
X2176800Y1828954D03*
X2167800D03*
X2167600Y1850954D03*
X2176600D03*
X2167600Y1840054D03*
X2176600D03*
X2161100Y1337954D03*
X2170100D03*
X2169900Y1348354D03*
X2160900D03*
Y1327754D03*
X2169900D03*
Y1317154D03*
X2160900D03*
X2160855Y1358937D03*
X2169855D03*
X2169400Y1369654D03*
X2160400D03*
X2156200Y1469954D03*
X2147200D03*
X2147100Y1619554D03*
X2156100D03*
Y1597554D03*
X2147100D03*
X2147000Y1536654D03*
X2156000D03*
X2147000Y1491954D03*
X2156000D03*
X2155800Y1514654D03*
X2146800D03*
X2145100Y1773554D03*
X2154100D03*
Y1751554D03*
X2145100D03*
X2154000Y1829654D03*
X2145000D03*
X2144800Y1850054D03*
X2153800D03*
X2144500Y1905154D03*
X2153500D03*
Y1893754D03*
X2144500D03*
X2128700Y1560654D03*
X2137700D03*
X2119400Y1905154D03*
X2128400D03*
X2119400Y1893754D03*
X2128400D03*
X2119400Y1444254D03*
X2128400D03*
X2119400Y1434354D03*
X2128400D03*
X2115100Y1797454D03*
X2124100D03*
X2096500Y1773454D03*
X2105500D03*
X2096500Y1762554D03*
X2105500D03*
Y1753054D03*
X2096500D03*
X2096400Y1839354D03*
X2105400D03*
Y1829454D03*
X2096400D03*
X2096200Y1849154D03*
X2105200D03*
X2104800Y1469954D03*
X2095800D03*
X2095700Y1619554D03*
X2104700D03*
X2095700Y1608454D03*
X2104700D03*
X2095600Y1536654D03*
X2104600D03*
X2095600Y1525954D03*
X2104600D03*
Y1514654D03*
X2095600D03*
Y1491954D03*
X2104600D03*
X2095600Y1481354D03*
X2104600D03*
X2093400Y1736454D03*
X2084400D03*
X2084200Y1696854D03*
X2093200D03*
X2063800Y1736254D03*
X2072800D03*
Y1696854D03*
X2063800D03*
X1900900Y1767454D03*
X1891900D03*
X1880100D03*
X1871100D03*
X1849700D03*
X1858700D03*
X1821600Y1732054D03*
X1830600D03*
X1777200Y1678254D03*
X1786200D03*
X1777300Y1688154D03*
X1786300D03*
X1742100Y1920454D03*
X1751100D03*
X1695700Y1827854D03*
X1704700D03*
X1704500Y1732254D03*
X1695500D03*
X1704300Y1721754D03*
X1695300D03*
G54D12*
X2280200Y1897454D03*
Y1574854D03*
G54D13*
Y1867454D03*
Y1837454D03*
Y1807454D03*
Y1777454D03*
Y1747454D03*
Y1717454D03*
Y1687454D03*
Y1657454D03*
Y1627454D03*
Y1544854D03*
Y1514854D03*
Y1484854D03*
Y1454854D03*
Y1424854D03*
Y1394854D03*
Y1364854D03*
Y1334854D03*
Y1304854D03*
G54D14*
X2222063Y1348894D03*
Y1341414D03*
G54D15*
X2229937Y1345154D03*
G54D16*
X2227040Y1904591D03*
X2219560D03*
G54D17*
X2223300Y1896717D03*
G54D18*
X2201300Y1561954D03*
Y1570954D03*
X2194100Y1435154D03*
Y1444154D03*
X2188000Y1798254D03*
Y1807254D03*
X2116900Y1880554D03*
Y1871554D03*
X2104900Y1697254D03*
Y1706254D03*
X2073300Y1841954D03*
Y1850954D03*
X2063500Y1841954D03*
Y1850954D03*
X2053300Y1841954D03*
Y1850954D03*
X2043200Y1841954D03*
Y1850954D03*
X2033000Y1841954D03*
Y1850954D03*
X2022800Y1841954D03*
Y1850954D03*
X2016800Y1808654D03*
Y1817654D03*
X2012600Y1841954D03*
Y1850954D03*
X2005100Y1818054D03*
Y1809054D03*
X2002600Y1841954D03*
Y1850954D03*
X1989600Y1714354D03*
Y1723354D03*
X1971000Y1850254D03*
Y1841254D03*
X1938100Y1900354D03*
Y1891354D03*
X1894400Y1840954D03*
Y1849954D03*
X1832100D03*
Y1840954D03*
G54D19*
X2209217Y1322854D03*
Y1327854D03*
Y1332854D03*
Y1337854D03*
X2186383D03*
Y1332854D03*
Y1327854D03*
Y1322854D03*
G54D20*
X2197800Y1330354D03*
G54D21*
X2192200Y1469954D03*
X2192100Y1514854D03*
X2191900Y1597454D03*
X2190200Y1751554D03*
X2190100Y1829054D03*
X2118600Y1469954D03*
X2118400Y1514654D03*
X2118300Y1597554D03*
X2117600Y1828054D03*
X2117400Y1751554D03*
G54D22*
X2197200Y1469954D03*
X2202200D03*
X2207200D03*
Y1491954D03*
X2202200D03*
X2197200D03*
X2192200D03*
X2197100Y1514854D03*
X2202100D03*
X2207100D03*
Y1536854D03*
X2202100D03*
X2197100D03*
X2192100D03*
X2196900Y1597454D03*
X2201900D03*
X2206900D03*
Y1619454D03*
X2201900D03*
X2196900D03*
X2191900D03*
X2195200Y1751554D03*
X2200200D03*
X2205200D03*
Y1773554D03*
X2200200D03*
X2195200D03*
X2190200D03*
X2195100Y1829054D03*
X2200100D03*
X2205100D03*
Y1851054D03*
X2200100D03*
X2195100D03*
X2190100D03*
X2123600Y1469954D03*
X2128600D03*
X2133600D03*
Y1491954D03*
X2128600D03*
X2123600D03*
X2118600D03*
X2123400Y1514654D03*
X2128400D03*
X2133400D03*
Y1536654D03*
X2128400D03*
X2123400D03*
X2118400D03*
X2123300Y1597554D03*
X2128300D03*
X2133300D03*
Y1619554D03*
X2128300D03*
X2123300D03*
X2118300D03*
X2122600Y1828054D03*
X2127600D03*
X2132600D03*
Y1850054D03*
X2127600D03*
X2122600D03*
X2117600D03*
X2122400Y1751554D03*
X2127400D03*
X2132400D03*
Y1773554D03*
X2127400D03*
X2122400D03*
X2117400D03*
G54D23*
X2180000Y1896854D03*
X2144500Y1881154D03*
X2064200Y1724254D03*
X1876200Y1741554D03*
G54D24*
X2180000Y1891854D03*
Y1886854D03*
Y1881854D03*
X2202000D03*
Y1886854D03*
Y1891854D03*
Y1896854D03*
X2144500Y1876154D03*
Y1871154D03*
Y1866154D03*
X2166500D03*
Y1871154D03*
Y1876154D03*
Y1881154D03*
X2064200Y1719254D03*
Y1714254D03*
Y1709254D03*
X2086200D03*
Y1714254D03*
Y1719254D03*
Y1724254D03*
X1876200Y1746554D03*
Y1751554D03*
Y1756554D03*
X1854200D03*
Y1751554D03*
Y1746554D03*
Y1741554D03*
G54D25*
X2152700Y1555654D03*
X2144700Y1428754D03*
X2138900Y1791454D03*
G54D26*
X2157700Y1555654D03*
X2162700D03*
X2167700D03*
X2172700D03*
X2177700D03*
X2182700D03*
X2187700D03*
Y1577654D03*
X2182700D03*
X2177700D03*
X2172700D03*
X2167700D03*
X2162700D03*
X2157700D03*
X2152700D03*
X2149700Y1428754D03*
X2154700D03*
X2159700D03*
X2164700D03*
X2169700D03*
X2174700D03*
X2179700D03*
Y1450754D03*
X2174700D03*
X2169700D03*
X2164700D03*
X2159700D03*
X2154700D03*
X2149700D03*
X2144700D03*
X2143900Y1791454D03*
X2148900D03*
X2153900D03*
X2158900D03*
X2163900D03*
X2168900D03*
X2173900D03*
Y1813454D03*
X2168900D03*
X2163900D03*
X2158900D03*
X2153900D03*
X2148900D03*
X2143900D03*
X2138900D03*
X2029100Y1787054D03*
X2034100D03*
X2039100D03*
X2044100D03*
X2049100D03*
X2054100D03*
X2059100D03*
X2064100D03*
X2069100D03*
X2074100D03*
Y1825054D03*
X2069100D03*
X2064100D03*
X2059100D03*
X2054100D03*
X2049100D03*
X2044100D03*
X2039100D03*
X2034100D03*
X2029100D03*
X2002800Y1699154D03*
X2007800D03*
X2012800D03*
X2017800D03*
X2022800D03*
X2027800D03*
X2032800D03*
X2037800D03*
X2042800D03*
X2047800D03*
Y1737154D03*
X2042800D03*
X2037800D03*
X2032800D03*
X2027800D03*
X2022800D03*
X2017800D03*
X2012800D03*
X2007800D03*
X2002800D03*
G54D27*
X2128400Y1881254D03*
Y1869254D03*
X1978300Y1724154D03*
Y1712154D03*
X1926100Y1900754D03*
Y1888754D03*
G54D28*
X2095475Y1304612D03*
X2097443D03*
X2099412D03*
X2101380D03*
X2103349D03*
X2105317D03*
X2107286D03*
X2109254D03*
X2111223D03*
X2113191D03*
X2115160D03*
X2117128D03*
X2119097D03*
X2121065D03*
X2123034D03*
X2125002D03*
X2126971D03*
X2128939D03*
X2130908D03*
X2132876D03*
X2134845D03*
X2136813D03*
X2138782D03*
X2140750D03*
Y1383352D03*
X2138782D03*
X2136813D03*
X2134845D03*
X2132876D03*
X2130908D03*
X2128939D03*
X2126971D03*
X2125002D03*
X2123034D03*
X2121065D03*
X2119097D03*
X2117128D03*
X2115160D03*
X2113191D03*
X2111223D03*
X2109254D03*
X2107286D03*
X2105317D03*
X2103349D03*
X2101380D03*
X2099412D03*
X2097443D03*
X2095475D03*
G54D29*
X2073300Y1870954D03*
Y1876954D03*
X2063500Y1870854D03*
Y1876854D03*
X2053300Y1870854D03*
Y1876854D03*
X2043200Y1870854D03*
Y1876854D03*
X2033000Y1870854D03*
Y1876854D03*
X2022700Y1870854D03*
Y1876854D03*
X2012500Y1871054D03*
Y1877054D03*
X2002600Y1871054D03*
Y1877054D03*
G54D30*
X2028200Y1753954D03*
X2068200D03*
X2028200Y1762454D03*
X2068200D03*
X1705121Y1764654D02*
Y1754733D01*
X1705600Y1754254*
X1706000Y1753854D02*
Y1743354D01*
X1727500*
X1704300Y1721754D02*
X1712600D01*
X1714200Y1723354*
X1727500*
X1704300Y1721754D02*
Y1712354D01*
X1704921Y1711733*
Y1701854*
X1695700Y1827854D02*
Y1840454D01*
X1699683Y1844438*
X1699773*
X1706790Y1851454*
X1695700Y1827854D02*
Y1821602D01*
X1701074Y1816228*
X1700200Y1795354D02*
Y1781954D01*
X1705121Y1777033*
Y1764654*
X1700200Y1815354D02*
X1701074Y1816228D01*
G54D31*
X1982100Y1823076D03*
Y1813233D03*
X1956021Y1845754D03*
X1946179D03*
X1949000Y1823076D03*
Y1813233D03*
X1920600Y1806076D03*
Y1796233D03*
X1918500Y1838765D03*
Y1852544D03*
X1824210Y1706654D03*
X1837990D03*
X1793200Y1889965D03*
Y1903744D03*
X1759600Y1889965D03*
Y1903744D03*
X1705121Y1764654D03*
X1695279D03*
X1704921Y1701854D03*
X1695079D03*
X1706790Y1851454D03*
X1693010D03*
G54D32*
X2006400Y1772054D03*
Y1790054D03*
G54D33*
X1979900Y1781054D03*
G54D34*
X1969100Y1902554D03*
X1960000D03*
X1950900D03*
G54D35*
X1960000Y1877554D03*
G54D36*
X1940900Y1796654D03*
X1949900D03*
G54D37*
X1920761Y1772054D03*
X1940839D03*
G54D38*
X1950485Y1734954D03*
X1911115D03*
X1852015Y1805454D03*
X1891385D03*
G54D39*
X1845500Y1849854D03*
G54D40*
X1852200D03*
X1858900D03*
X1865600D03*
X1872300D03*
G54D41*
X1858900Y1886854D03*
G54D42*
X1821850Y1767254D03*
X1835350D03*
X1821850Y1755254D03*
X1835350D03*
X1821850Y1743654D03*
X1835350D03*
G54D43*
X1824700Y1791154D03*
Y1819154D03*
G54D44*
X1762900Y1920454D03*
X1768900D03*
G54D45*
X1727500Y1743354D03*
Y1733354D03*
Y1723354D03*
G54D46*
X1700200Y1815354D03*
Y1805354D03*
Y1795354D03*
Y1805354D03*
G54D47*
X1706000Y1743354D03*
X1694000D03*
G54D48*
X1691985Y1644803D03*
Y1320472D03*
G54D49*
X1701985Y1644803D03*
X1711985D03*
X1721985D03*
X1731985D03*
X1741985D03*
X1751985D03*
X1761985D03*
X1771985D03*
X1781985D03*
X1791985D03*
X1801985D03*
X1811985D03*
X1821985D03*
X1831985D03*
X1841985D03*
X1851985D03*
X1861985D03*
X1871985D03*
X1881985D03*
X1891985D03*
X1901985D03*
X1911985D03*
X1921985D03*
X1931985D03*
X1941985D03*
X1951985D03*
X1961985D03*
X1971985D03*
X1981985D03*
X1991985D03*
X2001985D03*
X2011985D03*
X2021985D03*
X2031985D03*
X2041985D03*
X2051985D03*
X2061985D03*
X2071985D03*
X2081985D03*
X1691985Y1654803D03*
X1701985D03*
X1711985D03*
X1721985D03*
X1731985D03*
X1741985D03*
X1751985D03*
X1761985D03*
X1771985D03*
X1781985D03*
X1791985D03*
X1801985D03*
X1811985D03*
X1821985D03*
X1831985D03*
X1841985D03*
X1851985D03*
X1861985D03*
X1871985D03*
X1881985D03*
X1891985D03*
X1901985D03*
X1911985D03*
X1921985D03*
X1931985D03*
X1941985D03*
X1951985D03*
X1961985D03*
X1971985D03*
X1981985D03*
X1991985D03*
X2001985D03*
X2011985D03*
X2021985D03*
X2031985D03*
X2041985D03*
X2051985D03*
X2061985D03*
X2071985D03*
X2081985D03*
X1691985Y1664803D03*
X1701985D03*
X1711985D03*
X1721985D03*
X1731985D03*
X1741985D03*
X1751985D03*
X1761985D03*
X1771985D03*
X1781985D03*
X1791985D03*
X1801985D03*
X1811985D03*
X1821985D03*
X1831985D03*
X1841985D03*
X1851985D03*
X1861985D03*
X1871985D03*
X1881985D03*
X1891985D03*
X1901985D03*
X1911985D03*
X1921985D03*
X1931985D03*
X1941985D03*
X1951985D03*
X1961985D03*
X1971985D03*
X1981985D03*
X1991985D03*
X2001985D03*
X2011985D03*
X2021985D03*
X2031985D03*
X2041985D03*
X2051985D03*
X2061985D03*
X2071985D03*
X2081985D03*
X1701985Y1320472D03*
X1711985D03*
X1721985D03*
X1731985D03*
X1741985D03*
X1751985D03*
X1761985D03*
X1771985D03*
X1781985D03*
X1791985D03*
X1801985D03*
X1811985D03*
X1821985D03*
X1831985D03*
X1841985D03*
X1851985D03*
X1861985D03*
X1871985D03*
X1881985D03*
X1891985D03*
X1901985D03*
X1911985D03*
X1921985D03*
X1931985D03*
X1941985D03*
X1951985D03*
X1961985D03*
X1971985D03*
X1981985D03*
X1991985D03*
X2001985D03*
X2011985D03*
X2021985D03*
X2031985D03*
X2041985D03*
X2051985D03*
X2061985D03*
X2071985D03*
X2081985D03*
X1691985Y1330472D03*
X1701985D03*
X1711985D03*
X1721985D03*
X1731985D03*
X1741985D03*
X1751985D03*
X1761985D03*
X1771985D03*
X1781985D03*
X1791985D03*
X1801985D03*
X1811985D03*
X1821985D03*
X1831985D03*
X1841985D03*
X1851985D03*
X1861985D03*
X1871985D03*
X1881985D03*
X1891985D03*
X1901985D03*
X1911985D03*
X1921985D03*
X1931985D03*
X1941985D03*
X1951985D03*
X1961985D03*
X1971985D03*
X1981985D03*
X1991985D03*
X2001985D03*
X2011985D03*
X2021985D03*
X2031985D03*
X2041985D03*
X2051985D03*
X2061985D03*
X2071985D03*
X2081985D03*
X1691985Y1340472D03*
X1701985D03*
X1711985D03*
X1721985D03*
X1731985D03*
X1741985D03*
X1751985D03*
X1761985D03*
X1771985D03*
X1781985D03*
X1791985D03*
X1801985D03*
X1811985D03*
X1821985D03*
X1831985D03*
X1841985D03*
X1851985D03*
X1861985D03*
X1871985D03*
X1881985D03*
X1891985D03*
X1901985D03*
X1911985D03*
X1921985D03*
X1931985D03*
X1941985D03*
X1951985D03*
X1961985D03*
X1971985D03*
X1981985D03*
X1991985D03*
X2001985D03*
X2011985D03*
X2021985D03*
X2031985D03*
X2041985D03*
X2051985D03*
X2061985D03*
X2071985D03*
X2081985D03*
G54D50*
X1727100Y1896754D03*
X1703478D03*
X1715289Y1879038D03*
G54D51*
X1783000Y1712854D02*
Y1753854D01*
X1748000*
Y1712854*
X1783000*
X1748000D02*
Y1753854D01*
X1748500Y1712854D02*
Y1753854D01*
X1749000Y1712854D02*
Y1753854D01*
X1749500Y1712854D02*
Y1753854D01*
X1750000Y1712854D02*
Y1753854D01*
X1750500Y1712854D02*
Y1753854D01*
X1751000Y1712854D02*
Y1753854D01*
X1751500Y1712854D02*
Y1753854D01*
X1752000Y1712854D02*
Y1753854D01*
X1752500Y1712854D02*
Y1753854D01*
X1753000Y1712854D02*
Y1753854D01*
X1753500Y1712854D02*
Y1753854D01*
X1754000Y1712854D02*
Y1753854D01*
X1754500Y1712854D02*
Y1753854D01*
X1755000Y1712854D02*
Y1753854D01*
X1755500Y1712854D02*
Y1753854D01*
X1756000Y1712854D02*
Y1753854D01*
X1756500Y1712854D02*
Y1753854D01*
X1757000Y1712854D02*
Y1753854D01*
X1757500Y1712854D02*
Y1753854D01*
X1758000Y1712854D02*
Y1753854D01*
X1758500Y1712854D02*
Y1753854D01*
X1759000Y1712854D02*
Y1753854D01*
X1759500Y1712854D02*
Y1753854D01*
X1760000Y1712854D02*
Y1753854D01*
X1760500Y1712854D02*
Y1753854D01*
X1761000Y1712854D02*
Y1753854D01*
X1761500Y1712854D02*
Y1753854D01*
X1762000Y1712854D02*
Y1753854D01*
X1762500Y1712854D02*
Y1753854D01*
X1763000Y1712854D02*
Y1753854D01*
X1763500Y1712854D02*
Y1753854D01*
X1764000Y1712854D02*
Y1753854D01*
X1764500Y1712854D02*
Y1753854D01*
X1765000Y1712854D02*
Y1753854D01*
X1765500Y1712854D02*
Y1753854D01*
X1766000Y1712854D02*
Y1753854D01*
X1766500Y1712854D02*
Y1753854D01*
X1767000Y1712854D02*
Y1753854D01*
X1767500Y1712854D02*
Y1753854D01*
X1768000Y1712854D02*
Y1753854D01*
X1768500Y1712854D02*
Y1753854D01*
X1769000Y1712854D02*
Y1753854D01*
X1769500Y1712854D02*
Y1753854D01*
X1770000Y1712854D02*
Y1753854D01*
X1770500Y1712854D02*
Y1753854D01*
X1771000Y1712854D02*
Y1753854D01*
X1771500Y1712854D02*
Y1753854D01*
X1772000Y1712854D02*
Y1753854D01*
X1772500Y1712854D02*
Y1753854D01*
X1773000Y1712854D02*
Y1753854D01*
X1773500Y1712854D02*
Y1753854D01*
X1774000Y1712854D02*
Y1753854D01*
X1774500Y1712854D02*
Y1753854D01*
X1775000Y1712854D02*
Y1753854D01*
X1775500Y1712854D02*
Y1753854D01*
X1776000Y1712854D02*
Y1753854D01*
X1776500Y1712854D02*
Y1753854D01*
X1777000Y1712854D02*
Y1753854D01*
X1777500Y1712854D02*
Y1753854D01*
X1778000Y1712854D02*
Y1753854D01*
X1778500Y1712854D02*
Y1753854D01*
X1779000Y1712854D02*
Y1753854D01*
X1779500Y1712854D02*
Y1753854D01*
X1780000Y1712854D02*
Y1753854D01*
X1780500Y1712854D02*
Y1753854D01*
X1781000Y1712854D02*
Y1753854D01*
X1781500Y1712854D02*
Y1753854D01*
X1782000Y1712854D02*
Y1753854D01*
X1782500Y1712854D02*
Y1753854D01*
X1748500Y1731054D02*
Y1735854D01*
X1735000*
Y1731054*
X1748500*
X1735000D02*
Y1735854D01*
X1735500Y1731054D02*
Y1735854D01*
X1736000Y1731054D02*
Y1735854D01*
X1736500Y1731054D02*
Y1735854D01*
X1737000Y1731054D02*
Y1735854D01*
X1737500Y1731054D02*
Y1735854D01*
X1738000Y1731054D02*
Y1735854D01*
X1738500Y1731054D02*
Y1735854D01*
X1739000Y1731054D02*
Y1735854D01*
X1739500Y1731054D02*
Y1735854D01*
X1740000Y1731054D02*
Y1735854D01*
X1740500Y1731054D02*
Y1735854D01*
X1741000Y1731054D02*
Y1735854D01*
X1741500Y1731054D02*
Y1735854D01*
X1742000Y1731054D02*
Y1735854D01*
X1742500Y1731054D02*
Y1735854D01*
X1743000Y1731054D02*
Y1735854D01*
X1743500Y1731054D02*
Y1735854D01*
X1744000Y1731054D02*
Y1735854D01*
X1744500Y1731054D02*
Y1735854D01*
X1745000Y1731054D02*
Y1735854D01*
X1745500Y1731054D02*
Y1735854D01*
X1746000Y1731054D02*
Y1735854D01*
X1746500Y1731054D02*
Y1735854D01*
X1747000Y1731054D02*
Y1735854D01*
X1747500Y1731054D02*
Y1735854D01*
X1748000Y1731054D02*
Y1735854D01*
X1723700Y1801854D02*
Y1808854D01*
X1700700*
Y1801854*
X1723700*
X1700700D02*
Y1808854D01*
X1701200Y1801854D02*
Y1808854D01*
X1701700Y1801854D02*
Y1808854D01*
X1702200Y1801854D02*
Y1808854D01*
X1702700Y1801854D02*
Y1808854D01*
X1703200Y1801854D02*
Y1808854D01*
X1703700Y1801854D02*
Y1808854D01*
X1704200Y1801854D02*
Y1808854D01*
X1704700Y1801854D02*
Y1808854D01*
X1705200Y1801854D02*
Y1808854D01*
X1705700Y1801854D02*
Y1808854D01*
X1706200Y1801854D02*
Y1808854D01*
X1706700Y1801854D02*
Y1808854D01*
X1707200Y1801854D02*
Y1808854D01*
X1707700Y1801854D02*
Y1808854D01*
X1708200Y1801854D02*
Y1808854D01*
X1708700Y1801854D02*
Y1808854D01*
X1709200Y1801854D02*
Y1808854D01*
X1709700Y1801854D02*
Y1808854D01*
X1710200Y1801854D02*
Y1808854D01*
X1710700Y1801854D02*
Y1808854D01*
X1711200Y1801854D02*
Y1808854D01*
X1711700Y1801854D02*
Y1808854D01*
X1712200Y1801854D02*
Y1808854D01*
X1712700Y1801854D02*
Y1808854D01*
X1713200Y1801854D02*
Y1808854D01*
X1713700Y1801854D02*
Y1808854D01*
X1714200Y1801854D02*
Y1808854D01*
X1714700Y1801854D02*
Y1808854D01*
X1715200Y1801854D02*
Y1808854D01*
X1715700Y1801854D02*
Y1808854D01*
X1716200Y1801854D02*
Y1808854D01*
X1716700Y1801854D02*
Y1808854D01*
X1717200Y1801854D02*
Y1808854D01*
X1717700Y1801854D02*
Y1808854D01*
X1718200Y1801854D02*
Y1808854D01*
X1718700Y1801854D02*
Y1808854D01*
X1719200Y1801854D02*
Y1808854D01*
X1719700Y1801854D02*
Y1808854D01*
X1720200Y1801854D02*
Y1808854D01*
X1720700Y1801854D02*
Y1808854D01*
X1721200Y1801854D02*
Y1808854D01*
X1721700Y1801854D02*
Y1808854D01*
X1722200Y1801854D02*
Y1808854D01*
X1722700Y1801854D02*
Y1808854D01*
X1723200Y1801854D02*
Y1808854D01*
X1783200Y1783854D02*
Y1827354D01*
X1720700*
Y1783854*
X1783200*
X1720700D02*
Y1827354D01*
X1721200Y1783854D02*
Y1827354D01*
X1721700Y1783854D02*
Y1827354D01*
X1722200Y1783854D02*
Y1827354D01*
X1722700Y1783854D02*
Y1827354D01*
X1723200Y1783854D02*
Y1827354D01*
X1723700Y1783854D02*
Y1827354D01*
X1724200Y1783854D02*
Y1827354D01*
X1724700Y1783854D02*
Y1827354D01*
X1725200Y1783854D02*
Y1827354D01*
X1725700Y1783854D02*
Y1827354D01*
X1726200Y1783854D02*
Y1827354D01*
X1726700Y1783854D02*
Y1827354D01*
X1727200Y1783854D02*
Y1827354D01*
X1727700Y1783854D02*
Y1827354D01*
X1728200Y1783854D02*
Y1827354D01*
X1728700Y1783854D02*
Y1827354D01*
X1729200Y1783854D02*
Y1827354D01*
X1729700Y1783854D02*
Y1827354D01*
X1730200Y1783854D02*
Y1827354D01*
X1730700Y1783854D02*
Y1827354D01*
X1731200Y1783854D02*
Y1827354D01*
X1731700Y1783854D02*
Y1827354D01*
X1732200Y1783854D02*
Y1827354D01*
X1732700Y1783854D02*
Y1827354D01*
X1733200Y1783854D02*
Y1827354D01*
X1733700Y1783854D02*
Y1827354D01*
X1734200Y1783854D02*
Y1827354D01*
X1734700Y1783854D02*
Y1827354D01*
X1735200Y1783854D02*
Y1827354D01*
X1735700Y1783854D02*
Y1827354D01*
X1736200Y1783854D02*
Y1827354D01*
X1736700Y1783854D02*
Y1827354D01*
X1737200Y1783854D02*
Y1827354D01*
X1737700Y1783854D02*
Y1827354D01*
X1738200Y1783854D02*
Y1827354D01*
X1738700Y1783854D02*
Y1827354D01*
X1739200Y1783854D02*
Y1827354D01*
X1739700Y1783854D02*
Y1827354D01*
X1740200Y1783854D02*
Y1827354D01*
X1740700Y1783854D02*
Y1827354D01*
X1741200Y1783854D02*
Y1827354D01*
X1741700Y1783854D02*
Y1827354D01*
X1742200Y1783854D02*
Y1827354D01*
X1742700Y1783854D02*
Y1827354D01*
X1743200Y1783854D02*
Y1827354D01*
X1743700Y1783854D02*
Y1827354D01*
X1744200Y1783854D02*
Y1827354D01*
X1744700Y1783854D02*
Y1827354D01*
X1745200Y1783854D02*
Y1827354D01*
X1745700Y1783854D02*
Y1827354D01*
X1746200Y1783854D02*
Y1827354D01*
X1746700Y1783854D02*
Y1827354D01*
X1747200Y1783854D02*
Y1827354D01*
X1747700Y1783854D02*
Y1827354D01*
X1748200Y1783854D02*
Y1827354D01*
X1748700Y1783854D02*
Y1827354D01*
X1749200Y1783854D02*
Y1827354D01*
X1749700Y1783854D02*
Y1827354D01*
X1750200Y1783854D02*
Y1827354D01*
X1750700Y1783854D02*
Y1827354D01*
X1751200Y1783854D02*
Y1827354D01*
X1751700Y1783854D02*
Y1827354D01*
X1752200Y1783854D02*
Y1827354D01*
X1752700Y1783854D02*
Y1827354D01*
X1753200Y1783854D02*
Y1827354D01*
X1753700Y1783854D02*
Y1827354D01*
X1754200Y1783854D02*
Y1827354D01*
X1754700Y1783854D02*
Y1827354D01*
X1755200Y1783854D02*
Y1827354D01*
X1755700Y1783854D02*
Y1827354D01*
X1756200Y1783854D02*
Y1827354D01*
X1756700Y1783854D02*
Y1827354D01*
X1757200Y1783854D02*
Y1827354D01*
X1757700Y1783854D02*
Y1827354D01*
X1758200Y1783854D02*
Y1827354D01*
X1758700Y1783854D02*
Y1827354D01*
X1759200Y1783854D02*
Y1827354D01*
X1759700Y1783854D02*
Y1827354D01*
X1760200Y1783854D02*
Y1827354D01*
X1760700Y1783854D02*
Y1827354D01*
X1761200Y1783854D02*
Y1827354D01*
X1761700Y1783854D02*
Y1827354D01*
X1762200Y1783854D02*
Y1827354D01*
X1762700Y1783854D02*
Y1827354D01*
X1763200Y1783854D02*
Y1827354D01*
X1763700Y1783854D02*
Y1827354D01*
X1764200Y1783854D02*
Y1827354D01*
X1764700Y1783854D02*
Y1827354D01*
X1765200Y1783854D02*
Y1827354D01*
X1765700Y1783854D02*
Y1827354D01*
X1766200Y1783854D02*
Y1827354D01*
X1766700Y1783854D02*
Y1827354D01*
X1767200Y1783854D02*
Y1827354D01*
X1767700Y1783854D02*
Y1827354D01*
X1768200Y1783854D02*
Y1827354D01*
X1768700Y1783854D02*
Y1827354D01*
X1769200Y1783854D02*
Y1827354D01*
X1769700Y1783854D02*
Y1827354D01*
X1770200Y1783854D02*
Y1827354D01*
X1770700Y1783854D02*
Y1827354D01*
X1771200Y1783854D02*
Y1827354D01*
X1771700Y1783854D02*
Y1827354D01*
X1772200Y1783854D02*
Y1827354D01*
X1772700Y1783854D02*
Y1827354D01*
X1773200Y1783854D02*
Y1827354D01*
X1773700Y1783854D02*
Y1827354D01*
X1774200Y1783854D02*
Y1827354D01*
X1774700Y1783854D02*
Y1827354D01*
X1775200Y1783854D02*
Y1827354D01*
X1775700Y1783854D02*
Y1827354D01*
X1776200Y1783854D02*
Y1827354D01*
X1776700Y1783854D02*
Y1827354D01*
X1777200Y1783854D02*
Y1827354D01*
X1777700Y1783854D02*
Y1827354D01*
X1778200Y1783854D02*
Y1827354D01*
X1778700Y1783854D02*
Y1827354D01*
X1779200Y1783854D02*
Y1827354D01*
X1779700Y1783854D02*
Y1827354D01*
X1780200Y1783854D02*
Y1827354D01*
X1780700Y1783854D02*
Y1827354D01*
X1781200Y1783854D02*
Y1827354D01*
X1781700Y1783854D02*
Y1827354D01*
X1782200Y1783854D02*
Y1827354D01*
X1782700Y1783854D02*
Y1827354D01*
X1801985Y1340472D02*
X1796900Y1335387D01*
Y1315754*
X1807900Y1304754*
X1878300*
X1880700Y1307154*
X1916300*
X1811985Y1340472D02*
X1807100Y1335587D01*
Y1328569*
X1810215Y1325454*
X1813791*
X1817000Y1322246*
Y1315854*
X1823100Y1309754*
X1920624*
X1930224Y1300154*
X1963900*
X1978900Y1285154*
X1980800*
X1811985Y1330472D02*
X1817003Y1325454D01*
X1824500*
X1827000Y1322954*
Y1315554*
X1830500Y1312054*
X1921300*
X1930700Y1302654*
X1957200*
X1801985Y1330472D02*
X1807000Y1325457D01*
Y1315754*
X1815500Y1307254*
X1876200*
X2115600Y1310754D02*
X2117128Y1309226D01*
Y1304612*
X2119097D02*
Y1309051D01*
X2120800Y1310754*
X2117700Y1399454D02*
X2119097Y1397598D01*
Y1383352*
X2113600Y1399654D02*
X2117128Y1396126D01*
Y1383352*
X2106400Y1392054D02*
X2107286Y1391169D01*
Y1383352*
X2102900Y1392054D02*
X2105317Y1389637D01*
Y1383352*
X2154200Y1369654D02*
Y1372454D01*
X2157100Y1375354*
X2067300Y1525254D02*
X2067600Y1525554D01*
X2069600Y1454854D02*
Y1522354D01*
X2071200Y1523954*
X2069600Y1454854D02*
X2073700Y1450754D01*
X2144700*
X2075150Y1523704D02*
X2075300Y1523854D01*
Y1533254*
X2107100Y1565054*
X2184200*
X2187700Y1561554*
Y1555654*
X2179700Y1450754D02*
X2182000D01*
X2183300Y1449454*
Y1447854*
X2057100Y1603554D02*
Y1604054D01*
X2097300Y1644254*
Y1650654*
X2044800Y1568954D02*
X2047100D01*
X2047900Y1568154*
X2051300*
X2062000Y1557454*
Y1449654*
X2087600Y1424054*
X2128900*
X2164000Y1388954*
Y1374554*
X2168900Y1369654*
X2043400Y1562854D02*
X2047000D01*
X2055400Y1554454*
Y1446454*
X2084000Y1417854*
X2125700*
X2157100Y1386454*
Y1375354*
X2050400Y1604554D02*
X2081985Y1636139D01*
Y1644803*
X2053500Y1602754D02*
Y1604154D01*
X2088700Y1639354*
Y1648154*
X2067600Y1525554D02*
Y1453754D01*
X2081100Y1440254*
X2183300*
X2069900Y1530954D02*
X2070600Y1531754D01*
Y1534454*
X2113800Y1577654*
X2152700*
X2077700Y1529154D02*
Y1532554D01*
X2096700Y1551554*
X2146000*
X2150100Y1555654*
X2152700*
X2077700Y1529154D02*
X2078400Y1528454D01*
X2072800D02*
Y1533654D01*
X2106300Y1567154*
X2191600*
X2187700Y1577654D02*
X2190000D01*
X2191600Y1576054*
Y1575154*
X1786200Y1678254D02*
X1787200D01*
X1792500Y1672954*
X1897100*
X1910300Y1686154*
X1995100*
X2000300Y1691354*
X1871985Y1644803D02*
X1877000Y1649818D01*
Y1667754*
X1879500Y1670254*
X2047100Y1605854D02*
X2048726Y1607481D01*
X2050226*
X2072000Y1629254*
Y1644803*
X2051985Y1664803D02*
Y1712454D01*
X2054200Y1714669*
Y1726154*
X2056200Y1728154*
Y1742654*
X2062400Y1748854*
Y1767354*
X2065900Y1770854*
X2077800*
X2082900Y1775954*
X2071985Y1644803D02*
X2072000D01*
X2081985Y1654803D02*
X2082018Y1654836D01*
X2088700Y1648154*
X1786300Y1688154D02*
X1791800Y1682654D01*
Y1677354*
X1794100Y1675054*
X1896400*
X1909500Y1688154*
X1988800*
X1991300Y1690654*
X2027800Y1737154D02*
Y1745354D01*
X2034100Y1751654*
Y1787054*
X2032800Y1737154D02*
Y1744954D01*
X2039100Y1751254*
Y1787054*
X2037800Y1737154D02*
Y1744754D01*
X2044100Y1751054*
Y1787054*
X2042800Y1737154D02*
Y1744754D01*
X2049100Y1751054*
Y1787054*
X2047800Y1737154D02*
Y1745054D01*
X2054100Y1751354*
Y1787054*
X2047800Y1699154D02*
Y1711309D01*
X2052300Y1715809*
Y1726909*
X2054300Y1728909*
Y1743454*
X2060600Y1749754*
Y1768509*
X2064827Y1772736*
X2076727*
X2080900Y1776909*
Y1792200*
X2042800Y1699154D02*
Y1708854D01*
X2050500Y1716554*
Y1727654*
X2052500Y1729654*
Y1744254*
X2058800Y1750554*
Y1769254*
X2064100Y1774554*
X2076000*
X2079100Y1777654*
X2037800Y1699154D02*
Y1706654D01*
X2048600Y1717454*
Y1728754*
X2050600Y1730754*
Y1745054*
X2057000Y1751454*
Y1770154*
X2063200Y1776354*
X2075100*
X2077300Y1778554*
X2002600Y1841454D02*
Y1841954D01*
X2022700Y1837054D02*
Y1841954D01*
X2022800*
X2022700Y1837054D02*
X2024700Y1835054D01*
X2039500*
X2044100Y1830454*
Y1825054*
X2012500Y1836154D02*
Y1841954D01*
X2012600*
X2012500Y1836154D02*
X2015400Y1833254D01*
X2036100*
X2039100Y1830254*
Y1825054*
X2002600Y1841954D02*
Y1841454D01*
X2012600Y1831454*
X2032800*
X2034100Y1830154*
Y1825054*
X2069100D02*
Y1831754D01*
X2073300Y1835954*
Y1841954*
X2069100Y1787054D02*
Y1789554D01*
X2071600Y1792054*
X2075900*
X2077300Y1790654*
Y1778554*
X2064100Y1787054D02*
Y1789554D01*
X2068400Y1793854*
X2076700*
X2079100Y1791454*
Y1777654*
X2059100Y1787054D02*
Y1789554D01*
X2065200Y1795654*
X2077446*
X2080900Y1792200*
X2033000Y1841954D02*
Y1841454D01*
X2037500Y1836954*
X2043100*
X2049100Y1830954*
Y1825054*
X2043200Y1841954D02*
Y1841454D01*
X2054100Y1830554*
Y1825054*
X2053300Y1841954D02*
Y1836254D01*
X2059100Y1830454*
Y1825054*
X2063500Y1841954D02*
X2064100Y1841354D01*
Y1825054*
X2096600Y1801654D02*
X2108400Y1813454D01*
X2138900*
X2095200Y1794254D02*
X2104200D01*
X2109300Y1789154*
X2133300*
X2135700Y1791554*
X2138800*
X2138900Y1791454*
X2100500Y1801854D02*
X2102000Y1803354D01*
X2177500*
X2177600Y1803254*
X2104700Y1800854D02*
X2105400Y1801554D01*
X2170800*
X2173900Y1798454*
Y1791454*
X2074100Y1825054D02*
Y1822554D01*
X2082900Y1813754*
Y1775954*
X2173900Y1813454D02*
X2176200D01*
X2177600Y1812054*
Y1811054*
X2140400Y1880154D02*
X2170800D01*
Y1882254*
X2148600*
Y1889447*
X2146593Y1891454*
X2142207*
X2140400Y1889647*
Y1880154*
X1714300Y1841347D02*
X1715507Y1842554D01*
X1789793*
X1793500Y1838847*
Y1772061*
X1792293Y1770854*
X1715507*
X1714300Y1772061*
Y1841347*
X1741600Y1763647D02*
X1742807Y1764854D01*
X1792293*
X1793500Y1763647*
Y1703261*
X1792293Y1702054*
X1742807*
X1741600Y1703261*
Y1763647*
X1805000Y1928347D02*
X1806207Y1929554D01*
X1909793*
X1911000Y1928347*
Y1862761*
X1909793Y1861554*
X1808707*
X1805000Y1865261*
Y1928347*
X1705607Y1848654D02*
X1704400Y1849861D01*
Y1853847*
X1705607Y1855054*
X1720778*
X1722023Y1855570*
X1728385Y1861932*
X1728900Y1863176*
Y1887961*
X1727107Y1889754*
X1720807*
X1719600Y1890961*
Y1904347*
X1720807Y1905554*
X1736179*
X1737056Y1905191*
X1745277Y1896970*
X1746522Y1896454*
X1796793*
X1798000Y1895247*
Y1863276*
X1798515Y1862032*
X1806077Y1854470*
X1807322Y1853954*
X1840178*
X1841423Y1854470*
X1843444Y1856491*
X1844321Y1856854*
X1847300*
Y1842854*
X1844121*
X1843244Y1843218*
X1839823Y1846639*
X1838578Y1847154*
X1811193*
X1809400Y1845361*
Y1772847*
X1811193Y1771054*
X1823393*
X1824600Y1769847*
Y1721576*
X1825115Y1720332*
X1828137Y1717310*
X1828500Y1716434*
Y1703261*
X1827293Y1702054*
X1821007*
X1819800Y1703261*
Y1716332*
X1819285Y1717577*
X1816163Y1720698*
X1815800Y1721575*
Y1762061*
X1814007Y1763854*
X1806407*
X1803700Y1766561*
Y1842732*
X1803185Y1843977*
X1789263Y1857898*
X1788900Y1858775*
Y1883361*
X1787107Y1885154*
X1737093*
X1735300Y1883361*
Y1860675*
X1734937Y1859798*
X1724156Y1849018*
X1723279Y1848654*
X1705607*
X1832500Y1741261D02*
X1833207Y1740554D01*
X1880100*
Y1742554*
X1862815*
X1861924Y1742923*
X1857510Y1747338*
X1856986Y1747554*
X1839293*
X1838000Y1748847*
Y1769747*
X1837293Y1770454*
X1833207*
X1832500Y1769747*
Y1741261*
X1872500Y1746161D02*
X1873007Y1745654D01*
X1888769*
X1889151Y1745813*
X1902682Y1759344*
X1903432Y1759654*
X1938607*
X1939700Y1758561*
Y1712061*
X1940207Y1711554*
X1958393*
X1958900Y1712061*
Y1754724*
X1958742Y1755105*
X1948351Y1765496*
X1947969Y1765654*
X1946693*
X1945600Y1766747*
Y1777747*
X1945093Y1778254*
X1936807*
X1936300Y1777747*
Y1763147*
X1935207Y1762054*
X1901831*
X1901449Y1761896*
X1887218Y1747665*
X1886468Y1747354*
X1873007*
X1872500Y1746847*
Y1746161*
X1903400Y1754454D02*
X1925000D01*
Y1715554*
X1903400*
Y1754454*
X1993993Y1755654D02*
X1995700Y1757361D01*
Y1803247*
X1993993Y1804954*
X1948300*
Y1793061*
X1953400Y1787961*
Y1766261*
X1964007Y1755654*
X1993993*
X1816600Y1814161D02*
X1817107Y1813654D01*
X1842107*
X1843200Y1812561*
Y1785461*
X1843707Y1784954*
X1860193*
X1860700Y1785461*
Y1825047*
X1860193Y1825554*
X1817107*
X1816600Y1825047*
Y1814161*
X1816500Y1801047D02*
X1817207Y1801754D01*
X1832193*
X1832900Y1801047*
Y1781961*
X1832193Y1781254*
X1817207*
X1816500Y1781961*
Y1801047*
X1883207Y1785254D02*
X1882500Y1785961D01*
Y1835341*
X1882717Y1835864*
X1890190Y1843338*
X1890714Y1843554*
X1921393*
X1922100Y1842847*
Y1835161*
X1921393Y1834454*
X1901493*
X1900200Y1833161*
Y1785961*
X1899493Y1785254*
X1883207*
X1953807Y1842254D02*
X1953100Y1842961D01*
Y1883341*
X1953317Y1883864*
X1957231Y1887778*
X1957600Y1888669*
Y1905247*
X1958307Y1905954*
X1961693*
X1962400Y1905247*
Y1888469*
X1962769Y1887578*
X1966783Y1883564*
X1967000Y1883041*
Y1860669*
X1967369Y1859778*
X1973483Y1853664*
X1973700Y1853141*
Y1848161*
X1972993Y1847454*
X1964615*
X1963724Y1847085*
X1959110Y1842471*
X1958586Y1842254*
X1953807*
X1701800Y1698454D02*
Y1724154D01*
X1711407*
X1713207Y1725954*
X1735200*
Y1720061*
X1730101Y1714963*
X1730003Y1698454*
X1701800*
X1968100Y1809954D02*
X1995107D01*
X2000600Y1804461*
Y1786754*
X2015300*
Y1799745*
X2008800Y1806145*
Y1811754*
X1999693*
X1993493Y1817954*
X1968100*
Y1809954*
X1674900Y1873061D02*
X1675607Y1872354D01*
X1721593*
X1722300Y1873061*
Y1881141*
X1722083Y1881664*
X1711169Y1892578*
X1710800Y1893469*
Y1913347*
X1710093Y1914054*
X1675607*
X1674900Y1913347*
Y1873061*
X2140400Y1881953D02*
X2170800D01*
X2140400Y1881053D02*
X2170800D01*
X2140400Y1889153D02*
X2148600D01*
X2140400Y1888253D02*
X2148600D01*
X2140400Y1887353D02*
X2148600D01*
X2140400Y1886453D02*
X2148600D01*
X2140400Y1885553D02*
X2148600D01*
X2140400Y1884653D02*
X2148600D01*
X2140400Y1883753D02*
X2148600D01*
X2140400Y1882853D02*
X2148600D01*
X2140806Y1890053D02*
X2147994D01*
X2141706Y1890953D02*
X2147094D01*
X1714300Y1838353D02*
X1793500D01*
X1714300Y1837453D02*
X1793500D01*
X1714300Y1836553D02*
X1793500D01*
X1714300Y1835653D02*
X1793500D01*
X1714300Y1834753D02*
X1793500D01*
X1714300Y1833853D02*
X1793500D01*
X1714300Y1832953D02*
X1793500D01*
X1714300Y1832053D02*
X1793500D01*
X1714300Y1831153D02*
X1793500D01*
X1714300Y1830253D02*
X1793500D01*
X1714300Y1829353D02*
X1793500D01*
X1714300Y1828453D02*
X1793500D01*
X1714300Y1827553D02*
X1793500D01*
X1714300Y1826653D02*
X1793500D01*
X1714300Y1825753D02*
X1793500D01*
X1714300Y1824853D02*
X1793500D01*
X1714300Y1823953D02*
X1793500D01*
X1714300Y1823053D02*
X1793500D01*
X1714300Y1822153D02*
X1793500D01*
X1714300Y1821253D02*
X1793500D01*
X1714300Y1820353D02*
X1793500D01*
X1714300Y1819453D02*
X1793500D01*
X1714300Y1818553D02*
X1793500D01*
X1714300Y1817653D02*
X1793500D01*
X1714300Y1816753D02*
X1793500D01*
X1714300Y1815853D02*
X1793500D01*
X1714300Y1814953D02*
X1793500D01*
X1714300Y1814053D02*
X1793500D01*
X1714300Y1813153D02*
X1793500D01*
X1714300Y1812253D02*
X1793500D01*
X1714300Y1811353D02*
X1793500D01*
X1714300Y1810453D02*
X1793500D01*
X1714300Y1809553D02*
X1793500D01*
X1714300Y1808653D02*
X1793500D01*
X1714300Y1807753D02*
X1793500D01*
X1714300Y1806853D02*
X1793500D01*
X1714300Y1805953D02*
X1793500D01*
X1714300Y1805053D02*
X1793500D01*
X1714300Y1804153D02*
X1793500D01*
X1714300Y1803253D02*
X1793500D01*
X1714300Y1802353D02*
X1793500D01*
X1714300Y1801453D02*
X1793500D01*
X1714300Y1800553D02*
X1793500D01*
X1714300Y1799653D02*
X1793500D01*
X1714300Y1798753D02*
X1793500D01*
X1714300Y1797853D02*
X1793500D01*
X1714300Y1796953D02*
X1793500D01*
X1714300Y1796053D02*
X1793500D01*
X1714300Y1795153D02*
X1793500D01*
X1714300Y1794253D02*
X1793500D01*
X1714300Y1793353D02*
X1793500D01*
X1714300Y1792453D02*
X1793500D01*
X1714300Y1791553D02*
X1793500D01*
X1714300Y1790653D02*
X1793500D01*
X1714300Y1789753D02*
X1793500D01*
X1714300Y1788853D02*
X1793500D01*
X1714300Y1787953D02*
X1793500D01*
X1714300Y1787053D02*
X1793500D01*
X1714300Y1786153D02*
X1793500D01*
X1714300Y1785253D02*
X1793500D01*
X1714300Y1784353D02*
X1793500D01*
X1714300Y1783453D02*
X1793500D01*
X1714300Y1782553D02*
X1793500D01*
X1714300Y1781653D02*
X1793500D01*
X1714300Y1780753D02*
X1793500D01*
X1714300Y1779853D02*
X1793500D01*
X1714300Y1778953D02*
X1793500D01*
X1714300Y1778053D02*
X1793500D01*
X1714300Y1777153D02*
X1793500D01*
X1714300Y1776253D02*
X1793500D01*
X1714300Y1775353D02*
X1793500D01*
X1714300Y1774453D02*
X1793500D01*
X1714300Y1773553D02*
X1793500D01*
X1714300Y1772653D02*
X1793500D01*
X1714608Y1771753D02*
X1793192D01*
X1714300Y1839253D02*
X1793094D01*
X1714300Y1840153D02*
X1792194D01*
X1714300Y1841053D02*
X1791294D01*
X1714906Y1841953D02*
X1790394D01*
X1741600Y1763253D02*
X1793500D01*
X1741600Y1762353D02*
X1793500D01*
X1741600Y1761453D02*
X1793500D01*
X1741600Y1760553D02*
X1793500D01*
X1741600Y1759653D02*
X1793500D01*
X1741600Y1758753D02*
X1793500D01*
X1741600Y1757853D02*
X1793500D01*
X1741600Y1756953D02*
X1793500D01*
X1741600Y1756053D02*
X1793500D01*
X1741600Y1755153D02*
X1793500D01*
X1741600Y1754253D02*
X1793500D01*
X1741600Y1753353D02*
X1793500D01*
X1741600Y1752453D02*
X1793500D01*
X1741600Y1751553D02*
X1793500D01*
X1741600Y1750653D02*
X1793500D01*
X1741600Y1749753D02*
X1793500D01*
X1741600Y1748853D02*
X1793500D01*
X1741600Y1747953D02*
X1793500D01*
X1741600Y1747053D02*
X1793500D01*
X1741600Y1746153D02*
X1793500D01*
X1741600Y1745253D02*
X1793500D01*
X1741600Y1744353D02*
X1793500D01*
X1741600Y1743453D02*
X1793500D01*
X1741600Y1742553D02*
X1793500D01*
X1741600Y1741653D02*
X1793500D01*
X1741600Y1740753D02*
X1793500D01*
X1741600Y1739853D02*
X1793500D01*
X1741600Y1738953D02*
X1793500D01*
X1741600Y1738053D02*
X1793500D01*
X1741600Y1737153D02*
X1793500D01*
X1741600Y1736253D02*
X1793500D01*
X1741600Y1735353D02*
X1793500D01*
X1741600Y1734453D02*
X1793500D01*
X1741600Y1733553D02*
X1793500D01*
X1741600Y1732653D02*
X1793500D01*
X1741600Y1731753D02*
X1793500D01*
X1741600Y1730853D02*
X1793500D01*
X1741600Y1729953D02*
X1793500D01*
X1741600Y1729053D02*
X1793500D01*
X1741600Y1728153D02*
X1793500D01*
X1741600Y1727253D02*
X1793500D01*
X1741600Y1726353D02*
X1793500D01*
X1741600Y1725453D02*
X1793500D01*
X1741600Y1724553D02*
X1793500D01*
X1741600Y1723653D02*
X1793500D01*
X1741600Y1722753D02*
X1793500D01*
X1741600Y1721853D02*
X1793500D01*
X1741600Y1720953D02*
X1793500D01*
X1741600Y1720053D02*
X1793500D01*
X1741600Y1719153D02*
X1793500D01*
X1741600Y1718253D02*
X1793500D01*
X1741600Y1717353D02*
X1793500D01*
X1741600Y1716453D02*
X1793500D01*
X1741600Y1715553D02*
X1793500D01*
X1741600Y1714653D02*
X1793500D01*
X1741600Y1713753D02*
X1793500D01*
X1741600Y1712853D02*
X1793500D01*
X1741600Y1711953D02*
X1793500D01*
X1741600Y1711053D02*
X1793500D01*
X1741600Y1710153D02*
X1793500D01*
X1741600Y1709253D02*
X1793500D01*
X1741600Y1708353D02*
X1793500D01*
X1741600Y1707453D02*
X1793500D01*
X1741600Y1706553D02*
X1793500D01*
X1741600Y1705653D02*
X1793500D01*
X1741600Y1704753D02*
X1793500D01*
X1741600Y1703853D02*
X1793500D01*
X1741908Y1702953D02*
X1793192D01*
X1742106Y1764153D02*
X1792994D01*
X1805000Y1928153D02*
X1911000D01*
X1805000Y1927253D02*
X1911000D01*
X1805000Y1926353D02*
X1911000D01*
X1805000Y1925453D02*
X1911000D01*
X1805000Y1924553D02*
X1911000D01*
X1805000Y1923653D02*
X1911000D01*
X1805000Y1922753D02*
X1911000D01*
X1805000Y1921853D02*
X1911000D01*
X1805000Y1920953D02*
X1911000D01*
X1805000Y1920053D02*
X1911000D01*
X1805000Y1919153D02*
X1911000D01*
X1805000Y1918253D02*
X1911000D01*
X1805000Y1917353D02*
X1911000D01*
X1805000Y1916453D02*
X1911000D01*
X1805000Y1915553D02*
X1911000D01*
X1805000Y1914653D02*
X1911000D01*
X1805000Y1913753D02*
X1911000D01*
X1805000Y1912853D02*
X1911000D01*
X1805000Y1911953D02*
X1911000D01*
X1805000Y1911053D02*
X1911000D01*
X1805000Y1910153D02*
X1911000D01*
X1805000Y1909253D02*
X1911000D01*
X1805000Y1908353D02*
X1911000D01*
X1805000Y1907453D02*
X1911000D01*
X1805000Y1906553D02*
X1911000D01*
X1805000Y1905653D02*
X1911000D01*
X1805000Y1904753D02*
X1911000D01*
X1805000Y1903853D02*
X1911000D01*
X1805000Y1902953D02*
X1911000D01*
X1805000Y1902053D02*
X1911000D01*
X1805000Y1901153D02*
X1911000D01*
X1805000Y1900253D02*
X1911000D01*
X1805000Y1899353D02*
X1911000D01*
X1805000Y1898453D02*
X1911000D01*
X1805000Y1897553D02*
X1911000D01*
X1805000Y1896653D02*
X1911000D01*
X1805000Y1895753D02*
X1911000D01*
X1805000Y1894853D02*
X1911000D01*
X1805000Y1893953D02*
X1911000D01*
X1805000Y1893053D02*
X1911000D01*
X1805000Y1892153D02*
X1911000D01*
X1805000Y1891253D02*
X1911000D01*
X1805000Y1890353D02*
X1911000D01*
X1805000Y1889453D02*
X1911000D01*
X1805000Y1888553D02*
X1911000D01*
X1805000Y1887653D02*
X1911000D01*
X1805000Y1886753D02*
X1911000D01*
X1805000Y1885853D02*
X1911000D01*
X1805000Y1884953D02*
X1911000D01*
X1805000Y1884053D02*
X1911000D01*
X1805000Y1883153D02*
X1911000D01*
X1805000Y1882253D02*
X1911000D01*
X1805000Y1881353D02*
X1911000D01*
X1805000Y1880453D02*
X1911000D01*
X1805000Y1879553D02*
X1911000D01*
X1805000Y1878653D02*
X1911000D01*
X1805000Y1877753D02*
X1911000D01*
X1805000Y1876853D02*
X1911000D01*
X1805000Y1875953D02*
X1911000D01*
X1805000Y1875053D02*
X1911000D01*
X1805000Y1874153D02*
X1911000D01*
X1805000Y1873253D02*
X1911000D01*
X1805000Y1872353D02*
X1911000D01*
X1805000Y1871453D02*
X1911000D01*
X1805000Y1870553D02*
X1911000D01*
X1805000Y1869653D02*
X1911000D01*
X1805000Y1868753D02*
X1911000D01*
X1805000Y1867853D02*
X1911000D01*
X1805000Y1866953D02*
X1911000D01*
X1805000Y1866053D02*
X1911000D01*
X1805108Y1865153D02*
X1911000D01*
X1806008Y1864253D02*
X1911000D01*
X1806908Y1863353D02*
X1911000D01*
X1807808Y1862453D02*
X1910692D01*
X1805706Y1929053D02*
X1910294D01*
X1844318Y1856853D02*
X1847300D01*
X1842906Y1855953D02*
X1847300D01*
X1842006Y1855053D02*
X1847300D01*
X1840658Y1854153D02*
X1847300D01*
X1793908Y1853253D02*
X1847300D01*
X1794808Y1852353D02*
X1847300D01*
X1795708Y1851453D02*
X1847300D01*
X1796608Y1850553D02*
X1847300D01*
X1797508Y1849653D02*
X1847300D01*
X1798408Y1848753D02*
X1847300D01*
X1799308Y1847853D02*
X1847300D01*
X1839064Y1846953D02*
X1847300D01*
X1840408Y1846053D02*
X1847300D01*
X1841308Y1845153D02*
X1847300D01*
X1842208Y1844253D02*
X1847300D01*
X1843108Y1843353D02*
X1847300D01*
X1819800Y1715553D02*
X1828500D01*
X1819800Y1714653D02*
X1828500D01*
X1819800Y1713753D02*
X1828500D01*
X1819800Y1712853D02*
X1828500D01*
X1819800Y1711953D02*
X1828500D01*
X1819800Y1711053D02*
X1828500D01*
X1819800Y1710153D02*
X1828500D01*
X1819800Y1709253D02*
X1828500D01*
X1819800Y1708353D02*
X1828500D01*
X1819800Y1707453D02*
X1828500D01*
X1819800Y1706553D02*
X1828500D01*
X1819800Y1705653D02*
X1828500D01*
X1819800Y1704753D02*
X1828500D01*
X1819800Y1703853D02*
X1828500D01*
X1819750Y1716453D02*
X1828492D01*
X1820108Y1702953D02*
X1828192D01*
X1819377Y1717353D02*
X1828094D01*
X1818608Y1718253D02*
X1827194D01*
X1817708Y1719153D02*
X1826294D01*
X1816808Y1720053D02*
X1825394D01*
X1816058Y1720953D02*
X1824858D01*
X1803700Y1769553D02*
X1824600D01*
X1803700Y1768653D02*
X1824600D01*
X1803700Y1767753D02*
X1824600D01*
X1803700Y1766853D02*
X1824600D01*
X1804308Y1765953D02*
X1824600D01*
X1805208Y1765053D02*
X1824600D01*
X1806108Y1764153D02*
X1824600D01*
X1814608Y1763253D02*
X1824600D01*
X1815508Y1762353D02*
X1824600D01*
X1815800Y1761453D02*
X1824600D01*
X1815800Y1760553D02*
X1824600D01*
X1815800Y1759653D02*
X1824600D01*
X1815800Y1758753D02*
X1824600D01*
X1815800Y1757853D02*
X1824600D01*
X1815800Y1756953D02*
X1824600D01*
X1815800Y1756053D02*
X1824600D01*
X1815800Y1755153D02*
X1824600D01*
X1815800Y1754253D02*
X1824600D01*
X1815800Y1753353D02*
X1824600D01*
X1815800Y1752453D02*
X1824600D01*
X1815800Y1751553D02*
X1824600D01*
X1815800Y1750653D02*
X1824600D01*
X1815800Y1749753D02*
X1824600D01*
X1815800Y1748853D02*
X1824600D01*
X1815800Y1747953D02*
X1824600D01*
X1815800Y1747053D02*
X1824600D01*
X1815800Y1746153D02*
X1824600D01*
X1815800Y1745253D02*
X1824600D01*
X1815800Y1744353D02*
X1824600D01*
X1815800Y1743453D02*
X1824600D01*
X1815800Y1742553D02*
X1824600D01*
X1815800Y1741653D02*
X1824600D01*
X1815800Y1740753D02*
X1824600D01*
X1815800Y1739853D02*
X1824600D01*
X1815800Y1738953D02*
X1824600D01*
X1815800Y1738053D02*
X1824600D01*
X1815800Y1737153D02*
X1824600D01*
X1815800Y1736253D02*
X1824600D01*
X1815800Y1735353D02*
X1824600D01*
X1815800Y1734453D02*
X1824600D01*
X1815800Y1733553D02*
X1824600D01*
X1815800Y1732653D02*
X1824600D01*
X1815800Y1731753D02*
X1824600D01*
X1815800Y1730853D02*
X1824600D01*
X1815800Y1729953D02*
X1824600D01*
X1815800Y1729053D02*
X1824600D01*
X1815800Y1728153D02*
X1824600D01*
X1815800Y1727253D02*
X1824600D01*
X1815800Y1726353D02*
X1824600D01*
X1815800Y1725453D02*
X1824600D01*
X1815800Y1724553D02*
X1824600D01*
X1815800Y1723653D02*
X1824600D01*
X1815800Y1722753D02*
X1824600D01*
X1815800Y1721853D02*
X1824600D01*
X1803700Y1770453D02*
X1823994D01*
X1800208Y1846953D02*
X1810992D01*
X1803700Y1771353D02*
X1810894D01*
X1801108Y1846053D02*
X1810092D01*
X1803700Y1772253D02*
X1809994D01*
X1802008Y1845153D02*
X1809400D01*
X1802908Y1844253D02*
X1809400D01*
X1803443Y1843353D02*
X1809400D01*
X1803700Y1842453D02*
X1809400D01*
X1803700Y1841553D02*
X1809400D01*
X1803700Y1840653D02*
X1809400D01*
X1803700Y1839753D02*
X1809400D01*
X1803700Y1838853D02*
X1809400D01*
X1803700Y1837953D02*
X1809400D01*
X1803700Y1837053D02*
X1809400D01*
X1803700Y1836153D02*
X1809400D01*
X1803700Y1835253D02*
X1809400D01*
X1803700Y1834353D02*
X1809400D01*
X1803700Y1833453D02*
X1809400D01*
X1803700Y1832553D02*
X1809400D01*
X1803700Y1831653D02*
X1809400D01*
X1803700Y1830753D02*
X1809400D01*
X1803700Y1829853D02*
X1809400D01*
X1803700Y1828953D02*
X1809400D01*
X1803700Y1828053D02*
X1809400D01*
X1803700Y1827153D02*
X1809400D01*
X1803700Y1826253D02*
X1809400D01*
X1803700Y1825353D02*
X1809400D01*
X1803700Y1824453D02*
X1809400D01*
X1803700Y1823553D02*
X1809400D01*
X1803700Y1822653D02*
X1809400D01*
X1803700Y1821753D02*
X1809400D01*
X1803700Y1820853D02*
X1809400D01*
X1803700Y1819953D02*
X1809400D01*
X1803700Y1819053D02*
X1809400D01*
X1803700Y1818153D02*
X1809400D01*
X1803700Y1817253D02*
X1809400D01*
X1803700Y1816353D02*
X1809400D01*
X1803700Y1815453D02*
X1809400D01*
X1803700Y1814553D02*
X1809400D01*
X1803700Y1813653D02*
X1809400D01*
X1803700Y1812753D02*
X1809400D01*
X1803700Y1811853D02*
X1809400D01*
X1803700Y1810953D02*
X1809400D01*
X1803700Y1810053D02*
X1809400D01*
X1803700Y1809153D02*
X1809400D01*
X1803700Y1808253D02*
X1809400D01*
X1803700Y1807353D02*
X1809400D01*
X1803700Y1806453D02*
X1809400D01*
X1803700Y1805553D02*
X1809400D01*
X1803700Y1804653D02*
X1809400D01*
X1803700Y1803753D02*
X1809400D01*
X1803700Y1802853D02*
X1809400D01*
X1803700Y1801953D02*
X1809400D01*
X1803700Y1801053D02*
X1809400D01*
X1803700Y1800153D02*
X1809400D01*
X1803700Y1799253D02*
X1809400D01*
X1803700Y1798353D02*
X1809400D01*
X1803700Y1797453D02*
X1809400D01*
X1803700Y1796553D02*
X1809400D01*
X1803700Y1795653D02*
X1809400D01*
X1803700Y1794753D02*
X1809400D01*
X1803700Y1793853D02*
X1809400D01*
X1803700Y1792953D02*
X1809400D01*
X1803700Y1792053D02*
X1809400D01*
X1803700Y1791153D02*
X1809400D01*
X1803700Y1790253D02*
X1809400D01*
X1803700Y1789353D02*
X1809400D01*
X1803700Y1788453D02*
X1809400D01*
X1803700Y1787553D02*
X1809400D01*
X1803700Y1786653D02*
X1809400D01*
X1803700Y1785753D02*
X1809400D01*
X1803700Y1784853D02*
X1809400D01*
X1803700Y1783953D02*
X1809400D01*
X1803700Y1783053D02*
X1809400D01*
X1803700Y1782153D02*
X1809400D01*
X1803700Y1781253D02*
X1809400D01*
X1803700Y1780353D02*
X1809400D01*
X1803700Y1779453D02*
X1809400D01*
X1803700Y1778553D02*
X1809400D01*
X1803700Y1777653D02*
X1809400D01*
X1803700Y1776753D02*
X1809400D01*
X1803700Y1775853D02*
X1809400D01*
X1803700Y1774953D02*
X1809400D01*
X1803700Y1774053D02*
X1809400D01*
X1803700Y1773153D02*
X1809400D01*
X1793008Y1854153D02*
X1806842D01*
X1792108Y1855053D02*
X1805494D01*
X1791208Y1855953D02*
X1804594D01*
X1790308Y1856853D02*
X1803694D01*
X1789408Y1857753D02*
X1802794D01*
X1788951Y1858653D02*
X1801894D01*
X1788900Y1859553D02*
X1800994D01*
X1788900Y1860453D02*
X1800094D01*
X1788900Y1861353D02*
X1799194D01*
X1788900Y1862253D02*
X1798424D01*
X1788900Y1863153D02*
X1798051D01*
X1719600Y1894653D02*
X1798000D01*
X1719600Y1893753D02*
X1798000D01*
X1719600Y1892853D02*
X1798000D01*
X1719600Y1891953D02*
X1798000D01*
X1719600Y1891053D02*
X1798000D01*
X1720408Y1890153D02*
X1798000D01*
X1727608Y1889253D02*
X1798000D01*
X1728508Y1888353D02*
X1798000D01*
X1728900Y1887453D02*
X1798000D01*
X1728900Y1886553D02*
X1798000D01*
X1728900Y1885653D02*
X1798000D01*
X1787508Y1884753D02*
X1798000D01*
X1788408Y1883853D02*
X1798000D01*
X1788900Y1882953D02*
X1798000D01*
X1788900Y1882053D02*
X1798000D01*
X1788900Y1881153D02*
X1798000D01*
X1788900Y1880253D02*
X1798000D01*
X1788900Y1879353D02*
X1798000D01*
X1788900Y1878453D02*
X1798000D01*
X1788900Y1877553D02*
X1798000D01*
X1788900Y1876653D02*
X1798000D01*
X1788900Y1875753D02*
X1798000D01*
X1788900Y1874853D02*
X1798000D01*
X1788900Y1873953D02*
X1798000D01*
X1788900Y1873053D02*
X1798000D01*
X1788900Y1872153D02*
X1798000D01*
X1788900Y1871253D02*
X1798000D01*
X1788900Y1870353D02*
X1798000D01*
X1788900Y1869453D02*
X1798000D01*
X1788900Y1868553D02*
X1798000D01*
X1788900Y1867653D02*
X1798000D01*
X1788900Y1866753D02*
X1798000D01*
X1788900Y1865853D02*
X1798000D01*
X1788900Y1864953D02*
X1798000D01*
X1788900Y1864053D02*
X1798000D01*
X1719600Y1895553D02*
X1797694D01*
X1719600Y1896453D02*
X1796794D01*
X1719600Y1897353D02*
X1744894D01*
X1719600Y1898253D02*
X1743994D01*
X1719600Y1899153D02*
X1743094D01*
X1719600Y1900053D02*
X1742194D01*
X1719600Y1900953D02*
X1741294D01*
X1719600Y1901853D02*
X1740394D01*
X1719600Y1902753D02*
X1739494D01*
X1719600Y1903653D02*
X1738594D01*
X1719806Y1904553D02*
X1737694D01*
X1728900Y1884753D02*
X1736692D01*
X1720706Y1905453D02*
X1736424D01*
X1728900Y1883853D02*
X1735792D01*
X1728900Y1882953D02*
X1735300D01*
X1728900Y1882053D02*
X1735300D01*
X1728900Y1881153D02*
X1735300D01*
X1728900Y1880253D02*
X1735300D01*
X1728900Y1879353D02*
X1735300D01*
X1728900Y1878453D02*
X1735300D01*
X1728900Y1877553D02*
X1735300D01*
X1728900Y1876653D02*
X1735300D01*
X1728900Y1875753D02*
X1735300D01*
X1728900Y1874853D02*
X1735300D01*
X1728900Y1873953D02*
X1735300D01*
X1728900Y1873053D02*
X1735300D01*
X1728900Y1872153D02*
X1735300D01*
X1728900Y1871253D02*
X1735300D01*
X1728900Y1870353D02*
X1735300D01*
X1728900Y1869453D02*
X1735300D01*
X1728900Y1868553D02*
X1735300D01*
X1728900Y1867653D02*
X1735300D01*
X1728900Y1866753D02*
X1735300D01*
X1728900Y1865853D02*
X1735300D01*
X1728900Y1864953D02*
X1735300D01*
X1728900Y1864053D02*
X1735300D01*
X1728890Y1863153D02*
X1735300D01*
X1728518Y1862253D02*
X1735300D01*
X1727806Y1861353D02*
X1735300D01*
X1726906Y1860453D02*
X1735208D01*
X1726006Y1859553D02*
X1734692D01*
X1725106Y1858653D02*
X1733792D01*
X1724206Y1857753D02*
X1732892D01*
X1723306Y1856853D02*
X1731992D01*
X1722406Y1855953D02*
X1731092D01*
X1705606Y1855053D02*
X1730192D01*
X1704706Y1854153D02*
X1729292D01*
X1704400Y1853253D02*
X1728392D01*
X1704400Y1852353D02*
X1727492D01*
X1704400Y1851453D02*
X1726592D01*
X1704400Y1850553D02*
X1725692D01*
X1704608Y1849653D02*
X1724792D01*
X1705508Y1848753D02*
X1723517D01*
X1832500Y1742353D02*
X1880100D01*
X1832500Y1741453D02*
X1880100D01*
X1832500Y1743253D02*
X1861594D01*
X1832500Y1744153D02*
X1860694D01*
X1832500Y1745053D02*
X1859794D01*
X1832500Y1745953D02*
X1858894D01*
X1832500Y1746853D02*
X1857994D01*
X1832500Y1747753D02*
X1839094D01*
X1832500Y1748653D02*
X1838194D01*
X1832500Y1769353D02*
X1838000D01*
X1832500Y1768453D02*
X1838000D01*
X1832500Y1767553D02*
X1838000D01*
X1832500Y1766653D02*
X1838000D01*
X1832500Y1765753D02*
X1838000D01*
X1832500Y1764853D02*
X1838000D01*
X1832500Y1763953D02*
X1838000D01*
X1832500Y1763053D02*
X1838000D01*
X1832500Y1762153D02*
X1838000D01*
X1832500Y1761253D02*
X1838000D01*
X1832500Y1760353D02*
X1838000D01*
X1832500Y1759453D02*
X1838000D01*
X1832500Y1758553D02*
X1838000D01*
X1832500Y1757653D02*
X1838000D01*
X1832500Y1756753D02*
X1838000D01*
X1832500Y1755853D02*
X1838000D01*
X1832500Y1754953D02*
X1838000D01*
X1832500Y1754053D02*
X1838000D01*
X1832500Y1753153D02*
X1838000D01*
X1832500Y1752253D02*
X1838000D01*
X1832500Y1751353D02*
X1838000D01*
X1832500Y1750453D02*
X1838000D01*
X1832500Y1749553D02*
X1838000D01*
X1833006Y1770253D02*
X1837494D01*
X1939700Y1753853D02*
X1958900D01*
X1939700Y1752953D02*
X1958900D01*
X1939700Y1752053D02*
X1958900D01*
X1939700Y1751153D02*
X1958900D01*
X1939700Y1750253D02*
X1958900D01*
X1939700Y1749353D02*
X1958900D01*
X1939700Y1748453D02*
X1958900D01*
X1939700Y1747553D02*
X1958900D01*
X1939700Y1746653D02*
X1958900D01*
X1939700Y1745753D02*
X1958900D01*
X1939700Y1744853D02*
X1958900D01*
X1939700Y1743953D02*
X1958900D01*
X1939700Y1743053D02*
X1958900D01*
X1939700Y1742153D02*
X1958900D01*
X1939700Y1741253D02*
X1958900D01*
X1939700Y1740353D02*
X1958900D01*
X1939700Y1739453D02*
X1958900D01*
X1939700Y1738553D02*
X1958900D01*
X1939700Y1737653D02*
X1958900D01*
X1939700Y1736753D02*
X1958900D01*
X1939700Y1735853D02*
X1958900D01*
X1939700Y1734953D02*
X1958900D01*
X1939700Y1734053D02*
X1958900D01*
X1939700Y1733153D02*
X1958900D01*
X1939700Y1732253D02*
X1958900D01*
X1939700Y1731353D02*
X1958900D01*
X1939700Y1730453D02*
X1958900D01*
X1939700Y1729553D02*
X1958900D01*
X1939700Y1728653D02*
X1958900D01*
X1939700Y1727753D02*
X1958900D01*
X1939700Y1726853D02*
X1958900D01*
X1939700Y1725953D02*
X1958900D01*
X1939700Y1725053D02*
X1958900D01*
X1939700Y1724153D02*
X1958900D01*
X1939700Y1723253D02*
X1958900D01*
X1939700Y1722353D02*
X1958900D01*
X1939700Y1721453D02*
X1958900D01*
X1939700Y1720553D02*
X1958900D01*
X1939700Y1719653D02*
X1958900D01*
X1939700Y1718753D02*
X1958900D01*
X1939700Y1717853D02*
X1958900D01*
X1939700Y1716953D02*
X1958900D01*
X1939700Y1716053D02*
X1958900D01*
X1939700Y1715153D02*
X1958900D01*
X1939700Y1714253D02*
X1958900D01*
X1939700Y1713353D02*
X1958900D01*
X1939700Y1712453D02*
X1958900D01*
X1939700Y1754753D02*
X1958888D01*
X1939700Y1755653D02*
X1958194D01*
X1939700Y1756553D02*
X1957294D01*
X1939700Y1757453D02*
X1956394D01*
X1939700Y1758353D02*
X1955494D01*
X1939008Y1759253D02*
X1954594D01*
X1899706Y1760153D02*
X1953694D01*
X1900606Y1761053D02*
X1952794D01*
X1901586Y1761953D02*
X1951894D01*
X1936006Y1762853D02*
X1950994D01*
X1936300Y1763753D02*
X1950094D01*
X1936300Y1764653D02*
X1949194D01*
X1936300Y1765553D02*
X1948214D01*
X1936300Y1766453D02*
X1945894D01*
X1936300Y1777253D02*
X1945600D01*
X1936300Y1776353D02*
X1945600D01*
X1936300Y1775453D02*
X1945600D01*
X1936300Y1774553D02*
X1945600D01*
X1936300Y1773653D02*
X1945600D01*
X1936300Y1772753D02*
X1945600D01*
X1936300Y1771853D02*
X1945600D01*
X1936300Y1770953D02*
X1945600D01*
X1936300Y1770053D02*
X1945600D01*
X1936300Y1769153D02*
X1945600D01*
X1936300Y1768253D02*
X1945600D01*
X1936300Y1767353D02*
X1945600D01*
X1936706Y1778153D02*
X1945194D01*
X1898806Y1759253D02*
X1902592D01*
X1897906Y1758353D02*
X1901692D01*
X1897006Y1757453D02*
X1900792D01*
X1896106Y1756553D02*
X1899892D01*
X1895206Y1755653D02*
X1898992D01*
X1894306Y1754753D02*
X1898092D01*
X1893406Y1753853D02*
X1897192D01*
X1892506Y1752953D02*
X1896292D01*
X1891606Y1752053D02*
X1895392D01*
X1890706Y1751153D02*
X1894492D01*
X1889806Y1750253D02*
X1893592D01*
X1888906Y1749353D02*
X1892692D01*
X1888006Y1748453D02*
X1891792D01*
X1886948Y1747553D02*
X1890892D01*
X1872500Y1746653D02*
X1889992D01*
X1872908Y1745753D02*
X1889007D01*
X1903400Y1754253D02*
X1925000D01*
X1903400Y1753353D02*
X1925000D01*
X1903400Y1752453D02*
X1925000D01*
X1903400Y1751553D02*
X1925000D01*
X1903400Y1750653D02*
X1925000D01*
X1903400Y1749753D02*
X1925000D01*
X1903400Y1748853D02*
X1925000D01*
X1903400Y1747953D02*
X1925000D01*
X1903400Y1747053D02*
X1925000D01*
X1903400Y1746153D02*
X1925000D01*
X1903400Y1745253D02*
X1925000D01*
X1903400Y1744353D02*
X1925000D01*
X1903400Y1743453D02*
X1925000D01*
X1903400Y1742553D02*
X1925000D01*
X1903400Y1741653D02*
X1925000D01*
X1903400Y1740753D02*
X1925000D01*
X1903400Y1739853D02*
X1925000D01*
X1903400Y1738953D02*
X1925000D01*
X1903400Y1738053D02*
X1925000D01*
X1903400Y1737153D02*
X1925000D01*
X1903400Y1736253D02*
X1925000D01*
X1903400Y1735353D02*
X1925000D01*
X1903400Y1734453D02*
X1925000D01*
X1903400Y1733553D02*
X1925000D01*
X1903400Y1732653D02*
X1925000D01*
X1903400Y1731753D02*
X1925000D01*
X1903400Y1730853D02*
X1925000D01*
X1903400Y1729953D02*
X1925000D01*
X1903400Y1729053D02*
X1925000D01*
X1903400Y1728153D02*
X1925000D01*
X1903400Y1727253D02*
X1925000D01*
X1903400Y1726353D02*
X1925000D01*
X1903400Y1725453D02*
X1925000D01*
X1903400Y1724553D02*
X1925000D01*
X1903400Y1723653D02*
X1925000D01*
X1903400Y1722753D02*
X1925000D01*
X1903400Y1721853D02*
X1925000D01*
X1903400Y1720953D02*
X1925000D01*
X1903400Y1720053D02*
X1925000D01*
X1903400Y1719153D02*
X1925000D01*
X1903400Y1718253D02*
X1925000D01*
X1903400Y1717353D02*
X1925000D01*
X1903400Y1716453D02*
X1925000D01*
X1948300Y1802453D02*
X1995700D01*
X1948300Y1801553D02*
X1995700D01*
X1948300Y1800653D02*
X1995700D01*
X1948300Y1799753D02*
X1995700D01*
X1948300Y1798853D02*
X1995700D01*
X1948300Y1797953D02*
X1995700D01*
X1948300Y1797053D02*
X1995700D01*
X1948300Y1796153D02*
X1995700D01*
X1948300Y1795253D02*
X1995700D01*
X1948300Y1794353D02*
X1995700D01*
X1948300Y1793453D02*
X1995700D01*
X1948808Y1792553D02*
X1995700D01*
X1949708Y1791653D02*
X1995700D01*
X1950608Y1790753D02*
X1995700D01*
X1951508Y1789853D02*
X1995700D01*
X1952408Y1788953D02*
X1995700D01*
X1953308Y1788053D02*
X1995700D01*
X1953400Y1787153D02*
X1995700D01*
X1953400Y1786253D02*
X1995700D01*
X1953400Y1785353D02*
X1995700D01*
X1953400Y1784453D02*
X1995700D01*
X1953400Y1783553D02*
X1995700D01*
X1953400Y1782653D02*
X1995700D01*
X1953400Y1781753D02*
X1995700D01*
X1953400Y1780853D02*
X1995700D01*
X1953400Y1779953D02*
X1995700D01*
X1953400Y1779053D02*
X1995700D01*
X1953400Y1778153D02*
X1995700D01*
X1953400Y1777253D02*
X1995700D01*
X1953400Y1776353D02*
X1995700D01*
X1953400Y1775453D02*
X1995700D01*
X1953400Y1774553D02*
X1995700D01*
X1953400Y1773653D02*
X1995700D01*
X1953400Y1772753D02*
X1995700D01*
X1953400Y1771853D02*
X1995700D01*
X1953400Y1770953D02*
X1995700D01*
X1953400Y1770053D02*
X1995700D01*
X1953400Y1769153D02*
X1995700D01*
X1953400Y1768253D02*
X1995700D01*
X1953400Y1767353D02*
X1995700D01*
X1953400Y1766453D02*
X1995700D01*
X1954108Y1765553D02*
X1995700D01*
X1955008Y1764653D02*
X1995700D01*
X1955908Y1763753D02*
X1995700D01*
X1956808Y1762853D02*
X1995700D01*
X1957708Y1761953D02*
X1995700D01*
X1958608Y1761053D02*
X1995700D01*
X1959508Y1760153D02*
X1995700D01*
X1960408Y1759253D02*
X1995700D01*
X1961308Y1758353D02*
X1995700D01*
X1962208Y1757453D02*
X1995700D01*
X1948300Y1803353D02*
X1995594D01*
X1963108Y1756553D02*
X1994892D01*
X1948300Y1804253D02*
X1994694D01*
X1816600Y1824553D02*
X1860700D01*
X1816600Y1823653D02*
X1860700D01*
X1816600Y1822753D02*
X1860700D01*
X1816600Y1821853D02*
X1860700D01*
X1816600Y1820953D02*
X1860700D01*
X1816600Y1820053D02*
X1860700D01*
X1816600Y1819153D02*
X1860700D01*
X1816600Y1818253D02*
X1860700D01*
X1816600Y1817353D02*
X1860700D01*
X1816600Y1816453D02*
X1860700D01*
X1816600Y1815553D02*
X1860700D01*
X1816600Y1814653D02*
X1860700D01*
X1817008Y1813753D02*
X1860700D01*
X1842908Y1812853D02*
X1860700D01*
X1843200Y1811953D02*
X1860700D01*
X1843200Y1811053D02*
X1860700D01*
X1843200Y1810153D02*
X1860700D01*
X1843200Y1809253D02*
X1860700D01*
X1843200Y1808353D02*
X1860700D01*
X1843200Y1807453D02*
X1860700D01*
X1843200Y1806553D02*
X1860700D01*
X1843200Y1805653D02*
X1860700D01*
X1843200Y1804753D02*
X1860700D01*
X1843200Y1803853D02*
X1860700D01*
X1843200Y1802953D02*
X1860700D01*
X1843200Y1802053D02*
X1860700D01*
X1843200Y1801153D02*
X1860700D01*
X1843200Y1800253D02*
X1860700D01*
X1843200Y1799353D02*
X1860700D01*
X1843200Y1798453D02*
X1860700D01*
X1843200Y1797553D02*
X1860700D01*
X1843200Y1796653D02*
X1860700D01*
X1843200Y1795753D02*
X1860700D01*
X1843200Y1794853D02*
X1860700D01*
X1843200Y1793953D02*
X1860700D01*
X1843200Y1793053D02*
X1860700D01*
X1843200Y1792153D02*
X1860700D01*
X1843200Y1791253D02*
X1860700D01*
X1843200Y1790353D02*
X1860700D01*
X1843200Y1789453D02*
X1860700D01*
X1843200Y1788553D02*
X1860700D01*
X1843200Y1787653D02*
X1860700D01*
X1843200Y1786753D02*
X1860700D01*
X1843200Y1785853D02*
X1860700D01*
X1817006Y1825453D02*
X1860294D01*
X1816500Y1800153D02*
X1832900D01*
X1816500Y1799253D02*
X1832900D01*
X1816500Y1798353D02*
X1832900D01*
X1816500Y1797453D02*
X1832900D01*
X1816500Y1796553D02*
X1832900D01*
X1816500Y1795653D02*
X1832900D01*
X1816500Y1794753D02*
X1832900D01*
X1816500Y1793853D02*
X1832900D01*
X1816500Y1792953D02*
X1832900D01*
X1816500Y1792053D02*
X1832900D01*
X1816500Y1791153D02*
X1832900D01*
X1816500Y1790253D02*
X1832900D01*
X1816500Y1789353D02*
X1832900D01*
X1816500Y1788453D02*
X1832900D01*
X1816500Y1787553D02*
X1832900D01*
X1816500Y1786653D02*
X1832900D01*
X1816500Y1785753D02*
X1832900D01*
X1816500Y1784853D02*
X1832900D01*
X1816500Y1783953D02*
X1832900D01*
X1816500Y1783053D02*
X1832900D01*
X1816500Y1782153D02*
X1832900D01*
X1816506Y1801053D02*
X1832894D01*
X1888806Y1841953D02*
X1922100D01*
X1887906Y1841053D02*
X1922100D01*
X1887006Y1840153D02*
X1922100D01*
X1886106Y1839253D02*
X1922100D01*
X1885206Y1838353D02*
X1922100D01*
X1884306Y1837453D02*
X1922100D01*
X1883406Y1836553D02*
X1922100D01*
X1882629Y1835653D02*
X1922100D01*
X1889706Y1842853D02*
X1922094D01*
X1882500Y1834753D02*
X1921692D01*
X1882500Y1833853D02*
X1900892D01*
X1882500Y1832953D02*
X1900200D01*
X1882500Y1832053D02*
X1900200D01*
X1882500Y1831153D02*
X1900200D01*
X1882500Y1830253D02*
X1900200D01*
X1882500Y1829353D02*
X1900200D01*
X1882500Y1828453D02*
X1900200D01*
X1882500Y1827553D02*
X1900200D01*
X1882500Y1826653D02*
X1900200D01*
X1882500Y1825753D02*
X1900200D01*
X1882500Y1824853D02*
X1900200D01*
X1882500Y1823953D02*
X1900200D01*
X1882500Y1823053D02*
X1900200D01*
X1882500Y1822153D02*
X1900200D01*
X1882500Y1821253D02*
X1900200D01*
X1882500Y1820353D02*
X1900200D01*
X1882500Y1819453D02*
X1900200D01*
X1882500Y1818553D02*
X1900200D01*
X1882500Y1817653D02*
X1900200D01*
X1882500Y1816753D02*
X1900200D01*
X1882500Y1815853D02*
X1900200D01*
X1882500Y1814953D02*
X1900200D01*
X1882500Y1814053D02*
X1900200D01*
X1882500Y1813153D02*
X1900200D01*
X1882500Y1812253D02*
X1900200D01*
X1882500Y1811353D02*
X1900200D01*
X1882500Y1810453D02*
X1900200D01*
X1882500Y1809553D02*
X1900200D01*
X1882500Y1808653D02*
X1900200D01*
X1882500Y1807753D02*
X1900200D01*
X1882500Y1806853D02*
X1900200D01*
X1882500Y1805953D02*
X1900200D01*
X1882500Y1805053D02*
X1900200D01*
X1882500Y1804153D02*
X1900200D01*
X1882500Y1803253D02*
X1900200D01*
X1882500Y1802353D02*
X1900200D01*
X1882500Y1801453D02*
X1900200D01*
X1882500Y1800553D02*
X1900200D01*
X1882500Y1799653D02*
X1900200D01*
X1882500Y1798753D02*
X1900200D01*
X1882500Y1797853D02*
X1900200D01*
X1882500Y1796953D02*
X1900200D01*
X1882500Y1796053D02*
X1900200D01*
X1882500Y1795153D02*
X1900200D01*
X1882500Y1794253D02*
X1900200D01*
X1882500Y1793353D02*
X1900200D01*
X1882500Y1792453D02*
X1900200D01*
X1882500Y1791553D02*
X1900200D01*
X1882500Y1790653D02*
X1900200D01*
X1882500Y1789753D02*
X1900200D01*
X1882500Y1788853D02*
X1900200D01*
X1882500Y1787953D02*
X1900200D01*
X1882500Y1787053D02*
X1900200D01*
X1882500Y1786153D02*
X1900200D01*
X1953100Y1853053D02*
X1973700D01*
X1953100Y1852153D02*
X1973700D01*
X1953100Y1851253D02*
X1973700D01*
X1953100Y1850353D02*
X1973700D01*
X1953100Y1849453D02*
X1973700D01*
X1953100Y1848553D02*
X1973700D01*
X1953100Y1853953D02*
X1973194D01*
X1953100Y1847653D02*
X1973192D01*
X1953100Y1854853D02*
X1972294D01*
X1953100Y1855753D02*
X1971394D01*
X1953100Y1856653D02*
X1970494D01*
X1953100Y1857553D02*
X1969594D01*
X1953100Y1858453D02*
X1968694D01*
X1953100Y1859353D02*
X1967794D01*
X1953100Y1860253D02*
X1967172D01*
X1953100Y1882753D02*
X1967000D01*
X1953100Y1881853D02*
X1967000D01*
X1953100Y1880953D02*
X1967000D01*
X1953100Y1880053D02*
X1967000D01*
X1953100Y1879153D02*
X1967000D01*
X1953100Y1878253D02*
X1967000D01*
X1953100Y1877353D02*
X1967000D01*
X1953100Y1876453D02*
X1967000D01*
X1953100Y1875553D02*
X1967000D01*
X1953100Y1874653D02*
X1967000D01*
X1953100Y1873753D02*
X1967000D01*
X1953100Y1872853D02*
X1967000D01*
X1953100Y1871953D02*
X1967000D01*
X1953100Y1871053D02*
X1967000D01*
X1953100Y1870153D02*
X1967000D01*
X1953100Y1869253D02*
X1967000D01*
X1953100Y1868353D02*
X1967000D01*
X1953100Y1867453D02*
X1967000D01*
X1953100Y1866553D02*
X1967000D01*
X1953100Y1865653D02*
X1967000D01*
X1953100Y1864753D02*
X1967000D01*
X1953100Y1863853D02*
X1967000D01*
X1953100Y1862953D02*
X1967000D01*
X1953100Y1862053D02*
X1967000D01*
X1953100Y1861153D02*
X1967000D01*
X1953229Y1883653D02*
X1966694D01*
X1954006Y1884553D02*
X1965794D01*
X1954906Y1885453D02*
X1964894D01*
X1955806Y1886353D02*
X1963994D01*
X1953100Y1846753D02*
X1963392D01*
X1956706Y1887253D02*
X1963094D01*
X1957386Y1888153D02*
X1962531D01*
X1953100Y1845853D02*
X1962492D01*
X1957600Y1904353D02*
X1962400D01*
X1957600Y1903453D02*
X1962400D01*
X1957600Y1902553D02*
X1962400D01*
X1957600Y1901653D02*
X1962400D01*
X1957600Y1900753D02*
X1962400D01*
X1957600Y1899853D02*
X1962400D01*
X1957600Y1898953D02*
X1962400D01*
X1957600Y1898053D02*
X1962400D01*
X1957600Y1897153D02*
X1962400D01*
X1957600Y1896253D02*
X1962400D01*
X1957600Y1895353D02*
X1962400D01*
X1957600Y1894453D02*
X1962400D01*
X1957600Y1893553D02*
X1962400D01*
X1957600Y1892653D02*
X1962400D01*
X1957600Y1891753D02*
X1962400D01*
X1957600Y1890853D02*
X1962400D01*
X1957600Y1889953D02*
X1962400D01*
X1957600Y1889053D02*
X1962400D01*
X1957606Y1905253D02*
X1962394D01*
X1953100Y1844953D02*
X1961592D01*
X1953100Y1844053D02*
X1960692D01*
X1953100Y1843153D02*
X1959792D01*
X1712706Y1725453D02*
X1735200D01*
X1711806Y1724553D02*
X1735200D01*
X1701800Y1723653D02*
X1735200D01*
X1701800Y1722753D02*
X1735200D01*
X1701800Y1721853D02*
X1735200D01*
X1701800Y1720953D02*
X1735200D01*
X1701800Y1720053D02*
X1735192D01*
X1701800Y1719153D02*
X1734292D01*
X1701800Y1718253D02*
X1733392D01*
X1701800Y1717353D02*
X1732492D01*
X1701800Y1716453D02*
X1731592D01*
X1701800Y1715553D02*
X1730692D01*
X1701800Y1714653D02*
X1730099D01*
X1701800Y1713753D02*
X1730094D01*
X1701800Y1712853D02*
X1730089D01*
X1701800Y1711953D02*
X1730083D01*
X1701800Y1711053D02*
X1730078D01*
X1701800Y1710153D02*
X1730073D01*
X1701800Y1709253D02*
X1730067D01*
X1701800Y1708353D02*
X1730062D01*
X1701800Y1707453D02*
X1730057D01*
X1701800Y1706553D02*
X1730051D01*
X1701800Y1705653D02*
X1730046D01*
X1701800Y1704753D02*
X1730040D01*
X1701800Y1703853D02*
X1730035D01*
X1701800Y1702953D02*
X1730030D01*
X1701800Y1702053D02*
X1730024D01*
X1701800Y1701153D02*
X1730019D01*
X1701800Y1700253D02*
X1730014D01*
X1701800Y1699353D02*
X1730008D01*
X2000600Y1799353D02*
X2015300D01*
X2000600Y1798453D02*
X2015300D01*
X2000600Y1797553D02*
X2015300D01*
X2000600Y1796653D02*
X2015300D01*
X2000600Y1795753D02*
X2015300D01*
X2000600Y1794853D02*
X2015300D01*
X2000600Y1793953D02*
X2015300D01*
X2000600Y1793053D02*
X2015300D01*
X2000600Y1792153D02*
X2015300D01*
X2000600Y1791253D02*
X2015300D01*
X2000600Y1790353D02*
X2015300D01*
X2000600Y1789453D02*
X2015300D01*
X2000600Y1788553D02*
X2015300D01*
X2000600Y1787653D02*
X2015300D01*
X2000600Y1800253D02*
X2014784D01*
X2000600Y1801153D02*
X2013870D01*
X2000600Y1802053D02*
X2012956D01*
X2000600Y1802953D02*
X2012042D01*
X2000600Y1803853D02*
X2011128D01*
X2000308Y1804753D02*
X2010214D01*
X1999408Y1805653D02*
X2009300D01*
X1968100Y1811053D02*
X2008800D01*
X1968100Y1810153D02*
X2008800D01*
X1995808Y1809253D02*
X2008800D01*
X1996708Y1808353D02*
X2008800D01*
X1997608Y1807453D02*
X2008800D01*
X1998508Y1806553D02*
X2008800D01*
X1968100Y1811953D02*
X1999494D01*
X1968100Y1812853D02*
X1998594D01*
X1968100Y1813753D02*
X1997694D01*
X1968100Y1814653D02*
X1996794D01*
X1968100Y1815553D02*
X1995894D01*
X1968100Y1816453D02*
X1994994D01*
X1968100Y1817353D02*
X1994094D01*
X1674900Y1880453D02*
X1722300D01*
X1674900Y1879553D02*
X1722300D01*
X1674900Y1878653D02*
X1722300D01*
X1674900Y1877753D02*
X1722300D01*
X1674900Y1876853D02*
X1722300D01*
X1674900Y1875953D02*
X1722300D01*
X1674900Y1875053D02*
X1722300D01*
X1674900Y1874153D02*
X1722300D01*
X1674900Y1873253D02*
X1722300D01*
X1674900Y1881353D02*
X1722212D01*
X1674900Y1882253D02*
X1721494D01*
X1674900Y1883153D02*
X1720594D01*
X1674900Y1884053D02*
X1719694D01*
X1674900Y1884953D02*
X1718794D01*
X1674900Y1885853D02*
X1717894D01*
X1674900Y1886753D02*
X1716994D01*
X1674900Y1887653D02*
X1716094D01*
X1674900Y1888553D02*
X1715194D01*
X1674900Y1889453D02*
X1714294D01*
X1674900Y1890353D02*
X1713394D01*
X1674900Y1891253D02*
X1712494D01*
X1674900Y1892153D02*
X1711594D01*
X1674900Y1893053D02*
X1710972D01*
X1674900Y1912853D02*
X1710800D01*
X1674900Y1911953D02*
X1710800D01*
X1674900Y1911053D02*
X1710800D01*
X1674900Y1910153D02*
X1710800D01*
X1674900Y1909253D02*
X1710800D01*
X1674900Y1908353D02*
X1710800D01*
X1674900Y1907453D02*
X1710800D01*
X1674900Y1906553D02*
X1710800D01*
X1674900Y1905653D02*
X1710800D01*
X1674900Y1904753D02*
X1710800D01*
X1674900Y1903853D02*
X1710800D01*
X1674900Y1902953D02*
X1710800D01*
X1674900Y1902053D02*
X1710800D01*
X1674900Y1901153D02*
X1710800D01*
X1674900Y1900253D02*
X1710800D01*
X1674900Y1899353D02*
X1710800D01*
X1674900Y1898453D02*
X1710800D01*
X1674900Y1897553D02*
X1710800D01*
X1674900Y1896653D02*
X1710800D01*
X1674900Y1895753D02*
X1710800D01*
X1674900Y1894853D02*
X1710800D01*
X1674900Y1893953D02*
X1710800D01*
X1675306Y1913753D02*
X1710394D01*
X1672300Y1265354D02*
X2327700D01*
Y1934646*
X1672300*
Y1265354*
G54D52*
X2087200Y1280854D02*
X2089500D01*
X2090300Y1281654*
X2120325*
X2138782Y1300111*
Y1304612*
X2091400Y1279254D02*
X2092200Y1280054D01*
X2120988*
X2140750Y1299816*
Y1304612*
X1977100Y1296254D02*
X1977000D01*
Y1292554*
X1978200Y1291354*
X1980900*
X1987400Y1284854*
X2119000*
X2134800Y1300654*
Y1304612*
X2134845*
X1927000Y1318260D02*
Y1325487D01*
X1931985Y1330472*
X1927000Y1318260D02*
X1938506Y1306754D01*
X1973000*
X1989900Y1289854*
X2114725*
X2125002Y1300131*
Y1304612*
X1937200Y1317754D02*
Y1325687D01*
X1941985Y1330472*
X1937200Y1317754D02*
X1944500Y1310454D01*
X1974400*
X1991800Y1293054*
X2113400*
X2121065Y1300720*
Y1304612*
X1946900Y1317954D02*
Y1335387D01*
X1951985Y1340472*
X1946900Y1317954D02*
X1952600Y1312254D01*
X1975200*
X1992800Y1294654*
X2109983*
X2115160Y1299831*
Y1304612*
X1957000Y1328354D02*
Y1335487D01*
X1961985Y1340472*
X1957000Y1328354D02*
X1959900Y1325454D01*
X1963900*
X1967000Y1322354*
Y1318054*
X1969600Y1315454*
X1977000*
X1994600Y1297854*
X2108658*
X2111223Y1300419*
Y1304612*
X1987385Y1327369D02*
Y1335872D01*
X1991985Y1340472*
X1987385Y1327369D02*
X1989500Y1325254D01*
X1994800*
X1997100Y1322954*
Y1303959*
X1998400Y1302658*
X1998404*
X1998500Y1302754*
X2084500*
X2086100Y1304354*
X2089800*
X2091300Y1302854*
Y1301954*
X1926900Y1314654D02*
X1936400Y1305154D01*
X1972200*
X1989100Y1288254*
X2115388*
X2126971Y1299837*
Y1304612*
X1937000Y1314154D02*
X1942500Y1308654D01*
X1973700*
X1990900Y1291454*
X2114063*
X2123034Y1300425*
Y1304612*
X1979600Y1288854D02*
X1979856Y1289110D01*
X1981411Y1287554*
X1982400*
X1986700Y1283254*
X2119663*
X2136813Y1300405*
Y1304612*
X1979500Y1293754D02*
X1981200D01*
X1988300Y1286654*
X2117804*
X2132876Y1301727*
Y1304612*
X1981985Y1330472D02*
X1987000Y1325457D01*
Y1310754*
X1996696Y1301058*
X2086296*
X2087300Y1301954*
X1961985Y1330472D02*
X1967003Y1325454D01*
X1974700*
X1977100Y1323054*
Y1318054*
X1995700Y1299454*
X2107995*
X2109200Y1300659*
Y1304612*
X2109254*
X1951985Y1330472D02*
X1957000Y1325457D01*
Y1318254*
X1961400Y1313854*
X1976000*
X1993600Y1296254*
X2109321*
X2113191Y1300125*
Y1304612*
X2061985Y1340472D02*
X2056900Y1335387D01*
Y1318554*
X2063100Y1312354*
X2094155*
X2097443Y1309066*
Y1304612*
X2071985Y1340472D02*
X2067000Y1335487D01*
Y1328554*
X2070100Y1325454*
X2073509*
X2077000Y1321963*
Y1317954*
X2079300Y1315654*
X2095380*
X2101380Y1309654*
Y1304612*
X2071985Y1330472D02*
X2077003Y1325454D01*
X2084000*
X2087000Y1322454*
Y1319354*
X2089000Y1317354*
X2096049*
X2103349Y1310054*
Y1304612*
X2061985Y1330472D02*
X2067000Y1325457D01*
Y1318554*
X2071500Y1314054*
X2094718*
X2099412Y1309360*
Y1304612*
X2041985Y1330472D02*
X2047000Y1325457D01*
Y1318554*
X2054900Y1310654*
X2093500*
X2095475Y1308680*
Y1304612*
X2121000D02*
X2121065D01*
X2087300Y1301954D02*
X2087488Y1301973D01*
X2089600Y1320454D02*
X2095386D01*
X2107286Y1308554*
Y1304612*
X2081985Y1330472D02*
X2087882D01*
X2105000Y1313354*
X2124200*
X2128939Y1308615*
Y1304612*
X2099412D02*
X2099467D01*
Y1307100*
X1890300Y1395154D02*
X1891100Y1395954D01*
X2107100*
X2109254Y1393800*
Y1383352*
X1890500Y1398354D02*
X1891300Y1397554D01*
X2107763*
X2111223Y1394094*
Y1383352*
X1908000Y1408054D02*
X1908900Y1407154D01*
X2120182*
X2126971Y1400366*
Y1383352*
X1904800Y1406354D02*
X1905600Y1405554D01*
X2119520*
X2125002Y1400072*
Y1383352*
X1902000Y1404754D02*
X1902800Y1403954D01*
X2118857*
X2123034Y1399777*
Y1383352*
X1898900Y1403554D02*
X1899300D01*
X1900500Y1402354*
X2118194*
X2121065Y1399483*
Y1383352*
X1893400Y1400054D02*
X1893500D01*
X1894400Y1399154*
X2108425*
X2113191Y1394388*
Y1383352*
X1896200Y1401754D02*
X1897200Y1400754D01*
X2109088*
X2115160Y1394683*
Y1383352*
X2033200Y1390054D02*
X2034100Y1390954D01*
X2098080*
X2101380Y1387654*
Y1383352*
X2036700Y1388254D02*
X2038000Y1389354D01*
X2097400*
X2099412Y1387343*
Y1383352*
X2037700Y1385054D02*
X2040400Y1387754D01*
X2096643*
X2097443Y1386954*
Y1383352*
X2017800Y1379254D02*
X2018600Y1378454D01*
X2129963*
X2130908Y1379399*
Y1383352*
X2013600Y1378254D02*
X2013844Y1378499D01*
X2015489Y1376854*
X2130626*
X2132876Y1379105*
Y1383352*
X2011900Y1375254D02*
X2131288D01*
X2134845Y1378811*
Y1383352*
X2009300Y1372754D02*
X2012800D01*
X2013700Y1373654*
X2131951*
X2136813Y1378516*
Y1383352*
X2007400Y1369854D02*
X2012200D01*
X2014400Y1372054*
X2132614*
X2138782Y1378222*
Y1383352*
X2006000Y1366654D02*
X2011300D01*
X2015100Y1370454*
X2133277*
X2140750Y1377928*
Y1383352*
X2041800Y1385254D02*
X2042600Y1386054D01*
X2089598*
X2092300Y1383352*
X2095475*
X2082000Y1393454D02*
X2082611D01*
X2083511Y1392554*
X2098849*
X2103349Y1388054*
Y1383352*
X2168900Y1369654D02*
X2169400D01*
X2039100Y1600654D02*
X2045300Y1594454D01*
Y1576954*
X2050900Y1571354*
X2051400Y1570754*
X2039100Y1600654D02*
Y1632854D01*
X2042600Y1636354*
X2051100*
X2057000Y1642254*
Y1649818*
X2061985Y1654803*
X2041000Y1601454D02*
X2047100Y1595354D01*
Y1578554*
X2051400Y1574254*
X2041000Y1601454D02*
Y1632154D01*
X2043500Y1634654*
X2051836*
X2061985Y1644803*
X2017800Y1578382D02*
X2023700Y1584282D01*
Y1599954*
X2017800Y1578382D02*
Y1570954D01*
X2018000*
X2023800Y1573354D02*
Y1579019D01*
X2026900Y1582119*
X2020300Y1573254D02*
Y1578200D01*
X2025300Y1583200*
X2026100Y1571054D02*
X2026124Y1571078D01*
Y1572754*
X2026200Y1572831*
Y1578754*
X2028700Y1581254*
Y1601754*
X2041600Y1570854D02*
X2042000D01*
Y1574248*
X1771985Y1654803D02*
X1777000Y1659818D01*
Y1678054*
X1777200Y1678254*
X1761985Y1654803D02*
X1767000Y1659818D01*
Y1678354*
X1776800Y1688154*
X1777300*
X1896800Y1669654D02*
X1911200Y1684054D01*
X2009600*
X2017800Y1692254*
Y1699154*
X1896800Y1669654D02*
Y1662454D01*
X1899500Y1659754*
X1907034*
X1911985Y1654803*
X1906900Y1669554D02*
X1919700Y1682354D01*
X2012800*
X2022800Y1692354*
Y1699154*
X1906900Y1669554D02*
Y1662754D01*
X1909900Y1659754*
X1914300*
X1917000Y1657054*
Y1649818*
X1911985Y1644803*
X1917100Y1669554D02*
X1928200Y1680654D01*
X2016600*
X2027800Y1691854*
Y1699154*
X1917100Y1669554D02*
Y1659688D01*
X1921985Y1654803*
X1984300Y1638654D02*
X1995836D01*
X2001985Y1644803*
X1931985Y1664803D02*
Y1669554D01*
X1939685Y1677254*
X2023100*
X2037800Y1691954*
Y1699154*
X1931985Y1654803D02*
X1937000Y1659818D01*
Y1669654*
X1942900Y1675554*
X2026300*
X2042900Y1692154*
Y1699154*
X1931985Y1644803D02*
X1937000Y1649818D01*
Y1656854*
X1939900Y1659754*
X1944000*
X1947100Y1662854*
Y1669654*
X1951300Y1673854*
X2029100*
X2047900Y1692654*
X1921985Y1644803D02*
X1927000Y1649818D01*
Y1669654*
X1936300Y1678954*
X2019900*
X2032800Y1691854*
Y1699154*
X2037100Y1635154D02*
Y1583354D01*
X2039200Y1581254*
Y1577048*
X2042000Y1574248*
X2037100Y1635154D02*
X2040000Y1638054D01*
X2045263*
X2048600Y1641392*
Y1641418*
X2051985Y1644803*
X2035500Y1635854D02*
Y1582654D01*
X2037600Y1580554*
Y1575254*
X2039500Y1573354*
X2035500Y1635854D02*
X2039400Y1639754D01*
X2044700*
X2047000Y1642054*
Y1649818*
X2051985Y1654803*
X2031985D02*
X2027000Y1649818D01*
Y1640122*
X2032200Y1634922*
Y1581154*
X2033500Y1579854*
Y1570954*
X2033800*
X2017000Y1637454D02*
Y1649818D01*
X2021985Y1654803*
X2017000Y1637454D02*
X2020200Y1634254D01*
Y1607988*
X2026900Y1601288*
Y1582119*
X2011985Y1654803D02*
X2007000Y1649818D01*
Y1642154*
X2017000Y1632154*
Y1606654*
X2023700Y1599954*
X2031985Y1644803D02*
Y1637754D01*
X2033800Y1635939*
Y1581954*
X2036000Y1579754*
Y1573354*
X2021985Y1644803D02*
Y1609869D01*
X2022000Y1608454*
X2028700Y1601754*
X2011985Y1644803D02*
Y1639854D01*
X2018600Y1633239*
Y1607321*
X2025300Y1600621*
Y1583200*
X2042800Y1696654D02*
Y1699154D01*
X2017800Y1713654D02*
Y1737154D01*
X2032800D02*
Y1718454D01*
X2033300*
X2027800Y1716954D02*
Y1737154D01*
X2022800Y1715454D02*
Y1737154D01*
X2037800Y1720054D02*
Y1737154D01*
X2045500Y1725254D02*
Y1728754D01*
X2047800Y1731054*
Y1737154*
X2042800Y1721854D02*
Y1737154D01*
X2047800Y1699154D02*
X2047900D01*
Y1692654*
X2042800Y1699154D02*
X2042900D01*
X2096600Y1801454D02*
Y1801654D01*
G54D53*
X2151300Y1349882D02*
X2160355Y1358937D01*
X2160855*
X2151300Y1349882D02*
Y1338054D01*
X2156500Y1332854*
X2186383*
X2209217D02*
X2224700D01*
X2209217Y1327854D02*
X2227600D01*
X2230195Y1325259*
X2232952Y1321554*
X2233900*
X2209217Y1322854D02*
X2216680D01*
X2217980Y1321554*
X2224900*
X2224700Y1332854D02*
X2225200D01*
X2229937Y1337591*
Y1345154*
X2233900Y1321554D02*
X2234200D01*
Y1311554*
X2097200Y1486654D02*
X2113300D01*
X2115300Y1484654*
X2127500*
X2130800Y1481354*
X2170100*
X2147000Y1491954D02*
X2146900D01*
Y1486754*
X2147000Y1458454D02*
X2149700Y1455754D01*
Y1450754*
X2104600Y1481354D02*
X2124800D01*
X2128600Y1477554*
Y1469954*
X2104600Y1514654D02*
X2118400D01*
X2095800Y1469954D02*
X2096300D01*
X2104700Y1461554*
X2152200*
X2154700Y1459054*
Y1450754*
X2104800Y1469954D02*
X2118600D01*
X2118400Y1514654D02*
X2123400D01*
X2123600Y1491954D02*
X2128600D01*
X2133600D02*
X2146900D01*
X2118600Y1469954D02*
X2123600D01*
X2207200Y1482554D02*
Y1491954D01*
X2169700Y1450754D02*
Y1469554D01*
X2170100Y1469954*
X2174700Y1450754D02*
Y1460554D01*
X2178000Y1463854*
X2208900*
X2210800Y1465754*
X2211100*
X2170000Y1514854D02*
X2170100D01*
Y1520454*
X2179000Y1514854D02*
X2192100D01*
X2179100Y1469954D02*
X2192200D01*
X2179100Y1481354D02*
X2196900D01*
X2202300Y1475954*
Y1469954*
X2192100Y1514854D02*
X2197100D01*
X2197200Y1491954D02*
X2197300Y1492054D01*
X2202200*
Y1491954*
X2207200D02*
X2221800D01*
X2202200Y1469954D02*
X2202300D01*
X2192200D02*
X2197200D01*
X2029600Y1577154D02*
Y1568254D01*
X2032000Y1565854*
X2048900*
X2058600Y1556154*
Y1448254*
X2085800Y1421054*
X2127200*
X2160400Y1387854*
Y1369654*
X2090500Y1541754D02*
X2095800Y1547054D01*
X2156600*
X2162700Y1553154*
Y1555654*
X2090500Y1541754D02*
Y1519754D01*
X2091895Y1518359*
X2094652Y1514654*
X2095600*
X2147000Y1586854D02*
Y1586754D01*
X2155300*
X2157700Y1584354*
Y1577654*
X2096700Y1531054D02*
X2137182D01*
X2142282Y1525954*
X2170400*
X2104600D02*
Y1525104D01*
X2124050*
X2128400Y1520754*
Y1514654*
X2118300Y1597554D02*
X2123300D01*
X2123400Y1536654D02*
X2123500Y1536754D01*
X2128400*
Y1536654*
X2133400D02*
X2147000D01*
X2148056*
X2151400Y1531754*
X2095900Y1597554D02*
X2096400D01*
X2103900Y1590054*
X2160200*
X2162700Y1587554*
Y1577654*
X2104900Y1597554D02*
X2118300D01*
X2192100Y1536954D02*
Y1536854D01*
X2211800D02*
X2221600D01*
X2175100Y1549054D02*
X2176150D01*
X2177700Y1550604*
Y1555654*
X2155500Y1550154D02*
X2157700Y1553154D01*
Y1555654*
X2182700Y1577654D02*
Y1588354D01*
X2185600Y1591254*
X2209600*
X2210800Y1592454*
X2182700Y1555654D02*
Y1550604D01*
X2184750Y1548554*
X2211700*
Y1549354*
X2169800Y1597454D02*
X2170300D01*
X2177700Y1590054*
Y1577654*
X2178800Y1597454D02*
X2191900D01*
X2179400Y1525954D02*
X2196500D01*
X2202100Y1520354*
Y1514854*
X2191900Y1597454D02*
X2196900D01*
X2197100Y1536854D02*
Y1537054D01*
X2201900*
X2202100Y1536854*
X2207100D02*
X2211800D01*
X2147100Y1614154D02*
Y1619554D01*
X2095700Y1613954D02*
X2124500D01*
X2129700Y1608754*
X2169500*
X2104700Y1608454D02*
X2125600D01*
X2128300Y1605754*
Y1597554*
X2123300Y1619554D02*
X2127500D01*
X2127900Y1619954*
X2128300Y1619554*
X2133300D02*
X2147100D01*
X2206900Y1612354D02*
Y1619454D01*
X2178500Y1608754D02*
X2189075D01*
X2193175Y1604654*
X2200050*
X2201900Y1602804*
Y1597454*
X2196900Y1619454D02*
Y1619654D01*
X2201700*
X2201900Y1619454*
X2206900D02*
X2221900D01*
X1821600Y1732054D02*
Y1737454D01*
X1821850Y1737704*
Y1743654*
X1821600Y1732054D02*
Y1720886D01*
X1824210Y1718276*
Y1706654*
X1821850Y1743654D02*
Y1755254D01*
Y1767254*
X1911115Y1740354D02*
Y1750054D01*
X1922600*
X1911115Y1740354D02*
X1922500D01*
X1911115Y1734954D02*
Y1729954D01*
X1922500*
X1911115D02*
Y1719754D01*
X1922500*
X1854200Y1746554D02*
X1851450D01*
Y1741554*
X1854200*
X1835350Y1755254D02*
Y1743654D01*
X1842800*
X1845700Y1746554*
X1851450*
X1835350Y1755254D02*
Y1767254D01*
X1854200Y1741554D02*
X1876200D01*
Y1746554D02*
X1888400D01*
X1902500Y1760654*
X1940500*
X1911115Y1734954D02*
Y1740354D01*
X1940800Y1760654D02*
Y1762557D01*
X1940839Y1762596*
Y1772054*
X1940800Y1760654D02*
X1943000D01*
X1943100Y1760754*
X1946400*
X1950485Y1756669*
Y1734954*
X1940800Y1760654D02*
X1940500D01*
X1940800Y1760354*
Y1760654*
X2061450Y1719254D02*
X2064200D01*
X1999200Y1732054D02*
Y1743554D01*
X2018100Y1762454*
X2028200*
X1999200Y1732054D02*
X2000700Y1730554D01*
X2006250*
X2007800Y1732104*
Y1737154*
X2002800D02*
Y1742154D01*
X2014600Y1753954*
X2028200*
X2068200Y1762454D02*
X2073600Y1767854D01*
X2078600*
X2085500Y1774754*
Y1855054*
X2092900Y1862454*
X2119400*
X2122300Y1865354*
Y1875654*
X2127900Y1881254*
X2128400*
X2068200Y1753954D02*
Y1747154D01*
X2072800Y1742554*
Y1736254*
X2064200Y1724254D02*
X2072800D01*
Y1736254*
Y1724254D02*
X2075700Y1721354D01*
Y1704854*
X2083700Y1696854*
X2084200*
X2094250Y1754804D02*
X2095552Y1753054D01*
X2096500*
X2090500Y1759054D02*
Y1779454D01*
X2094900Y1783854*
X2147000*
X2148900Y1785754*
Y1791454*
X2090500Y1759054D02*
X2096500Y1753054D01*
X2086200Y1714254D02*
X2091550D01*
X2093200Y1712604*
Y1696854*
X2104500*
X2104900Y1697254*
X2105500Y1753054D02*
X2111600D01*
X2113100Y1751554*
X2117400*
X2105500Y1762554D02*
X2111800D01*
X2115100Y1759254*
X2125500*
X2127400Y1757354*
Y1751554*
X2117400D02*
X2122400D01*
X2166000D02*
Y1756954D01*
X2166200Y1757154*
X2166000Y1751554D02*
X2168100D01*
X2177100D02*
X2190200D01*
X2177100Y1762454D02*
X2187675D01*
X2191675Y1758454*
X2198650*
X2200200Y1756904*
Y1751554*
X2190200D02*
Y1751854D01*
X2194900*
X2195200Y1751554*
X1829700Y1791154D02*
Y1800054D01*
X1819400Y1791154D02*
X1824700D01*
X1819300Y1800054D02*
Y1791154D01*
X1819400*
X1829700Y1783054D02*
Y1791154D01*
X1819400Y1783054D02*
Y1791154D01*
X1824700D02*
X1829700D01*
X1894600Y1838765D02*
X1918500D01*
X1891385Y1805454D02*
Y1833754D01*
X1953807Y1842254D02*
X1955800D01*
Y1845554*
X1956021Y1845754*
X1949900Y1796654D02*
X1964800D01*
X1979900Y1781554*
Y1781054*
X2145100Y1773454D02*
Y1773554D01*
X2143900Y1845154D02*
Y1850054D01*
X2141800Y1786654D02*
X2143900Y1788954D01*
Y1791454*
X2145100Y1768354D02*
Y1773454D01*
X2096500Y1767954D02*
X2111700D01*
X2117200Y1762454*
X2168100*
X2096400Y1829454D02*
X2096900D01*
X2105000Y1821354*
X2137125*
X2138325Y1822554*
X2146800*
X2148900Y1820454*
Y1813454*
X2105400Y1829454D02*
X2111700D01*
X2113100Y1828054*
X2117600*
X2105400Y1839354D02*
X2124200D01*
X2127600Y1835954*
Y1828054*
X2096400Y1839354D02*
X2096954D01*
X2101800Y1844354*
X2109500*
X2111200Y1842654*
X2127600*
X2130200Y1840054*
X2167600*
X2122400Y1773554D02*
X2127400D01*
X2132400D02*
Y1773454D01*
X2145100*
X2117600Y1828054D02*
X2122600D01*
X2143900Y1813454D02*
Y1819054D01*
X2210100Y1773654D02*
X2219000D01*
Y1773554*
X2163900Y1813454D02*
Y1819854D01*
X2167800Y1823754*
Y1828954*
X2168900Y1813454D02*
Y1819554D01*
X2172500Y1823154*
X2206900*
X2208400Y1824654*
X2168900Y1791454D02*
Y1786404D01*
X2170450Y1784854*
X2209400*
X2210100Y1785554*
X2163900Y1791454D02*
Y1786404D01*
X2165550Y1784754*
X2166200*
X2176600Y1840054D02*
X2193600D01*
X2200100Y1833554*
Y1829054*
X2176800Y1828954D02*
X2176900Y1829054D01*
X2190100*
X2195100*
X2195200Y1773554D02*
X2200200D01*
X2205200D02*
Y1773654D01*
X2210100*
X1727100Y1896754D02*
X1742229D01*
X1749019Y1889965*
X1759600*
X1727100Y1896754D02*
X1731600Y1892254D01*
Y1887961*
X1706790Y1851454D02*
X1721900D01*
X1731100Y1860654*
X1731600*
Y1887961*
X1832100Y1849954D02*
X1806600D01*
Y1773654*
X1813000Y1767254*
X1821850*
X1792900Y1855254D02*
Y1871058D01*
X1793200Y1871358*
Y1889965*
X1792900Y1855254D02*
X1798200Y1849954D01*
X1806600*
X1759600Y1889965D02*
X1793200D01*
X1832100Y1849954D02*
X1838900D01*
X1839000Y1849854*
X1845500*
X1956021Y1850076D02*
Y1858054D01*
X1960000Y1862033*
Y1877554*
X1956021Y1850076D02*
X1956200Y1850254D01*
X1971000*
X1956021Y1845754D02*
Y1850076D01*
X1960000Y1877554D02*
Y1902554D01*
X2143900Y1850054D02*
X2144800D01*
X2122600Y1850254D02*
X2127400D01*
X2127600Y1850054*
X2132600D02*
X2143900D01*
X2195100Y1851054D02*
X2195200Y1851154D01*
X2200100*
Y1851054*
X2205100D02*
X2219100D01*
X2219200Y1850954*
X2205100Y1851054D02*
Y1845554D01*
X2206500Y1844154*
Y1843854*
G54D54*
X2135800Y1318254D02*
Y1364954D01*
X2146100Y1375254*
X2136800Y1398554D02*
X2136900Y1398654D01*
X2146100Y1389454*
Y1375254*
X2049300Y1507654D02*
Y1443854D01*
X2080800Y1412354*
X2123200*
X2136800Y1398754*
Y1398554*
X2003800Y1510354D02*
Y1528354D01*
X2003900Y1529354*
X1681000Y1632754D02*
Y1747654D01*
X1687600Y1754254*
X1705600*
X1681000Y1632754D02*
X1702300Y1611454D01*
X2011300*
X1705000Y1732254D02*
X1705250D01*
Y1743354*
X1705500*
X1705600Y1754254D02*
X1706000Y1753854D01*
X1688200Y1743354D02*
X1694000D01*
X1689800Y1721954D02*
Y1721754D01*
X1695300*
X1689800Y1732154D02*
Y1732254D01*
X1695500*
X1830600Y1732054D02*
X1837300D01*
X1704700Y1827854D02*
X1704800D01*
Y1833654*
X1824700Y1819154D02*
X1852015D01*
X1832100Y1840954D02*
X1837400D01*
X1891385Y1833754D02*
X1894600D01*
Y1838765*
X1852015Y1819154D02*
Y1849669D01*
X1852200Y1849854*
X1880600Y1767454D02*
X1887400Y1774254D01*
X1907693*
X1909893Y1772054*
X1920761*
X1852015Y1805454D02*
Y1819154D01*
X1880100Y1767454D02*
X1880600D01*
X1894400Y1840954D02*
X1894600Y1840754D01*
Y1838765*
X1999200Y1818054D02*
X2005100D01*
X1888700Y1849954D02*
X1894400D01*
X1858900Y1886854D02*
X1872300D01*
Y1849854*
X1865600D02*
Y1838654D01*
X1870500Y1833754*
X1891385*
X1858900Y1849854D02*
Y1886854D01*
X1969100Y1896354D02*
Y1902554D01*
Y1908454*
Y1902554D02*
X1973900D01*
G54D55*
X2217500Y1341454D02*
Y1341414D01*
X2222063*
X2155300Y1343054D02*
X2155600D01*
X2160900Y1348354*
X2155300Y1343054D02*
X2160649Y1337954D01*
X2161100*
X2155400Y1322054D02*
Y1322254D01*
X2160900Y1327754*
X2155400Y1322054D02*
X2160426Y1317154D01*
X2160900*
X2218500Y1311554D02*
X2225200D01*
X2169900Y1317154D02*
X2176300D01*
X2169900Y1348354D02*
Y1348454D01*
X2176300*
X2128400Y1428854D02*
Y1434354D01*
X2113800Y1434454D02*
X2119400D01*
Y1434354*
X2113800Y1444354D02*
X2119400D01*
Y1444254*
X2128400D02*
Y1444354D01*
X2135100*
X2194100Y1444154D02*
Y1443954D01*
X2200300*
Y1444054*
X2189000Y1435154D02*
X2194100D01*
X2169400Y1369654D02*
X2176300D01*
X2139500Y1514654D02*
X2146800D01*
X2139800Y1469954D02*
X2147200D01*
X2090100Y1491854D02*
X2095600D01*
Y1491954*
X2104600D02*
X2111400D01*
X2213800Y1514854D02*
X2221600D01*
X2214500Y1470054D02*
X2222000D01*
Y1469954*
X2163800Y1491954D02*
X2170100D01*
X2230800Y1486654D02*
Y1491954D01*
X2155800Y1514654D02*
X2161300D01*
X2156200Y1469954D02*
Y1470054D01*
X2162000*
X2179100Y1491954D02*
X2185900D01*
X2230600Y1514854D02*
Y1514954D01*
X2236500*
X2231000Y1469954D02*
X2231100D01*
Y1464754*
X2137700Y1555454D02*
Y1560654D01*
X2140200Y1597654D02*
X2147100D01*
Y1597554*
X2122900Y1572054D02*
X2128673D01*
Y1571974*
X2122800Y1560854D02*
X2128700D01*
Y1560654*
X2104600Y1536654D02*
Y1536554D01*
X2111500*
X2114100Y1536654*
X2095600D02*
X2095700D01*
Y1541654*
X2137673Y1571974D02*
Y1570974D01*
X2139173*
X2144100Y1570854*
X2214900Y1597554D02*
X2221900D01*
Y1597454*
X2164700Y1536654D02*
X2170200D01*
Y1536854*
X2156100Y1597554D02*
X2162100D01*
X2179200Y1536854D02*
Y1536954D01*
X2186700*
X2201300Y1570954D02*
X2206900D01*
X2201300Y1561954D02*
Y1562054D01*
X2206800*
X2230600Y1536854D02*
Y1536654D01*
X2236400*
X2230900Y1597454D02*
Y1597554D01*
X2237100*
X2104700Y1619554D02*
X2111200D01*
X2095700D02*
Y1625054D01*
X2163600Y1619554D02*
X2169700D01*
X2178700D02*
X2185400D01*
X2230900Y1619454D02*
Y1619354D01*
X2237100*
X1978200Y1706454D02*
Y1712154D01*
X1978300*
X1970500Y1724154D02*
X1978300D01*
Y1712154D02*
Y1712704D01*
X1983900*
X1985000Y1713804*
X1989600*
Y1714354*
X1978300Y1712154D02*
X1978712D01*
X1978300Y1724154D02*
X1988800D01*
X1989600Y1723354*
X2063800Y1696854D02*
Y1702454D01*
X2137800Y1751554D02*
X2145100D01*
X2084300Y1730654D02*
Y1736454D01*
X2084400*
X2093400Y1731154D02*
Y1736454D01*
X2072700Y1702154D02*
Y1696854D01*
X2072800*
X2211200Y1751554D02*
X2219000D01*
X2154100D02*
X2160700D01*
X2228000D02*
X2234100D01*
X1849700Y1767454D02*
Y1772454D01*
X1971000Y1841254D02*
Y1842227D01*
X1975600Y1844654*
X1975700Y1844754*
X1976200*
X2016800Y1808654D02*
Y1808554D01*
X2022000*
X2139300Y1829654D02*
X2145000D01*
X2096400Y1779254D02*
Y1773454D01*
X2096500*
X2109000Y1797554D02*
X2115100D01*
Y1797454*
X2109000Y1807454D02*
X2115200D01*
X2105500Y1773454D02*
Y1779154D01*
X2124100Y1797454D02*
X2129200D01*
X2132300Y1794354*
X2124200Y1807454D02*
Y1807354D01*
X2131100*
X2211600Y1828954D02*
X2219000D01*
X2182800Y1798354D02*
X2188000D01*
Y1798254*
X2161900Y1773554D02*
X2168100D01*
X2154000Y1829654D02*
X2159900D01*
X2177100Y1773554D02*
Y1773654D01*
X2184200*
X2188000Y1807254D02*
Y1807154D01*
X2194000*
X2228000Y1773554D02*
Y1773454D01*
X2234200*
X2228000Y1828954D02*
X2234700D01*
X1971000Y1850254D02*
X1978000D01*
X2002400Y1825854*
X2009100*
X2016800Y1818154*
Y1817654*
X2128300Y1869254D02*
X2128400D01*
X2119400Y1887254D02*
Y1893754D01*
X2090700Y1849254D02*
X2096200D01*
Y1849154*
X2111400Y1871654D02*
X2116900D01*
Y1871554*
X2138600Y1905254D02*
X2144500D01*
Y1905154*
X2105200Y1849154D02*
X2111800D01*
X2116900Y1880554D02*
Y1882054D01*
X2119400Y1884554*
Y1887254*
X2128400Y1905154D02*
Y1893754D01*
X2144500*
X2119400D02*
Y1905154D01*
X2119500*
X2128400Y1869254D02*
X2134600D01*
X2128400Y1881254D02*
Y1893754D01*
X2176700Y1851054D02*
X2183600D01*
X2186600Y1908254D02*
X2186700D01*
X2161700Y1850954D02*
X2167600D01*
X2153800Y1845354D02*
Y1850054D01*
X2212900Y1875954D02*
X2219200D01*
X2186700Y1903154D02*
Y1908254D01*
X2176600Y1850954D02*
Y1851054D01*
X2176700*
X2195900Y1870154D02*
X2201900D01*
X2186900Y1875954D02*
Y1870154D01*
X2187030*
X2228200Y1850954D02*
X2234700D01*
X2227040Y1904591D02*
Y1904554D01*
X2231100*
G54D56*
X2169855Y1358937D02*
Y1359503D01*
X2169921*
X2169900Y1317154D02*
Y1327754D01*
X2170000Y1327854*
X2186383*
X2169900Y1348354D02*
X2170100D01*
Y1337954*
Y1337854*
X2186383*
Y1342337*
X2187900Y1343854*
X2209200*
Y1337854*
X2209217*
X2222063Y1348894D02*
Y1352917D01*
X2222100Y1352954*
X2128400Y1428854D02*
X2133400D01*
X2140600Y1421654*
X2158300*
X2159700Y1423054*
Y1428754*
X2135100Y1444354D02*
X2135600Y1443854D01*
X2158100*
X2159700Y1445454*
Y1450754*
X2160334Y1369089D02*
X2160400D01*
Y1369654*
X2160334Y1369089D02*
X2169921Y1359503D01*
X2111400Y1491954D02*
X2118600D01*
X2095700Y1486654D02*
X2097200D01*
X2095600Y1481354D02*
X2095700D01*
Y1486654*
X2133400Y1514654D02*
X2139500D01*
X2133600Y1469954D02*
X2139800D01*
X2185900Y1491954D02*
X2192200D01*
X2156000Y1487354D02*
Y1491954D01*
X2164700Y1450754D02*
Y1445854D01*
X2166400Y1444154*
X2194100*
X2207100Y1514854D02*
X2213800D01*
X2207200Y1469954D02*
Y1470054D01*
X2214500*
X2068600Y1537754D02*
X2089100Y1558254D01*
Y1613954*
X2114100Y1536654D02*
Y1536554D01*
X2118400*
Y1536654*
X2144100Y1570854D02*
X2166000D01*
X2167700Y1572554*
Y1577654*
X2085900Y1530954D02*
Y1489454D01*
X2088700Y1486654*
X2095700*
X2095600Y1525954D02*
X2096700D01*
Y1531054*
X2133300Y1597554D02*
Y1597654D01*
X2140200*
X2137700Y1560654D02*
Y1562154D01*
X2166000*
X2167700Y1560454*
Y1555654*
X2186700Y1536954D02*
X2192100D01*
X2156000Y1531954D02*
Y1536654D01*
X2172700Y1577654D02*
Y1572354D01*
X2174100Y1570954*
X2201300*
X2206900Y1597454D02*
Y1597554D01*
X2214900*
X2089100Y1613954D02*
Y1631254D01*
X2111000Y1653154*
Y1699654*
X2089100Y1613954D02*
X2095700D01*
X2111200Y1619554D02*
X2118300D01*
X2095700Y1608454D02*
Y1613954D01*
X2185400Y1619554D02*
X2191900D01*
Y1619454*
X2156100Y1614854D02*
Y1619554D01*
X1854200Y1756554D02*
Y1763454D01*
X1858200Y1767454*
X1858700*
X1876200Y1751554D02*
X1885100D01*
X1900700Y1767154*
X1900900*
Y1767454*
X1989600Y1723354D02*
X2005400D01*
X2012800Y1730754*
Y1737154*
X2006000Y1692754D02*
X2007717Y1694218D01*
X2007800Y1694301*
Y1699154*
X2012800Y1692754D02*
Y1699154D01*
X2099800Y1719254D02*
Y1731579D01*
X2101200Y1732979*
Y1746754*
X2099800Y1719254D02*
X2104900Y1714154D01*
Y1706254*
X2086200Y1719254D02*
X2099800D01*
X2096500Y1767954D02*
Y1762554D01*
X2097000*
X2104900Y1706254D02*
Y1705754D01*
X2111000Y1699654*
X2132400Y1751554D02*
X2137800D01*
X2205200D02*
X2211200D01*
X1880600Y1767454D02*
X1891900D01*
X1858700D02*
X1871100D01*
X2016800Y1817654D02*
X2026900D01*
X2029100Y1819854*
Y1825054*
X2117400Y1773454D02*
Y1773554D01*
X2124200Y1806154D02*
Y1807454D01*
X2089700Y1792154D02*
Y1833154D01*
X2095900Y1839354*
X2096400*
X2089700Y1792154D02*
X2093900Y1787954D01*
X2101300*
X2132300Y1794354D02*
Y1794454D01*
X2135300Y1797454*
X2152200*
X2153900Y1795754*
Y1791454*
X2131100Y1807354D02*
X2141700D01*
X2142900Y1806154*
X2152000*
X2153900Y1808054*
Y1813454*
X2105500Y1773454D02*
X2117300D01*
X2117400Y1773554*
X2124100Y1797454D02*
X2125100Y1798454D01*
X2132600Y1828054D02*
X2137700D01*
X2139300Y1829654*
X2145000D02*
X2145500D01*
X2184200Y1773654D02*
X2190200D01*
Y1773554*
X2154100Y1768554D02*
Y1773554D01*
X2158900Y1813454D02*
Y1808154D01*
X2160700Y1806354*
X2180900*
X2181800Y1807254*
X2188000*
X2205100Y1829054D02*
Y1828954D01*
X2211600*
X2219000D02*
Y1829054D01*
X1727100Y1896754D02*
X1735752Y1905406D01*
Y1914606*
X1741600Y1920454*
X1742100*
X1751100D02*
X1762900D01*
X1768900Y1916554D02*
Y1920454D01*
X2002600Y1850954D02*
Y1871054D01*
Y1877054D02*
X2006400D01*
X2012500D02*
X2016300D01*
X2012500Y1871054D02*
Y1861754D01*
X2012600Y1861654*
Y1850954*
X2022700Y1876854D02*
X2026400D01*
X2022700Y1870854D02*
X2022800Y1870754D01*
Y1850954*
X2033000D02*
Y1870854D01*
Y1876854D02*
X2036700D01*
X2043200Y1850954D02*
Y1870854D01*
Y1876854D02*
X2047000D01*
X2053300Y1850954D02*
Y1870854D01*
Y1876854D02*
X2057000D01*
X2063500Y1850954D02*
Y1870854D01*
Y1876854D02*
X2067300D01*
X2111800Y1849154D02*
X2117600D01*
Y1850054*
X2073300Y1850954D02*
Y1870954D01*
Y1876954D02*
X2077100D01*
X2144500Y1871154D02*
X2151600D01*
X2144500Y1876154D02*
X2151600D01*
X2144500Y1893754D02*
Y1881154D01*
X2166500*
X2227040Y1904198D02*
Y1904591D01*
X2183600Y1851054D02*
X2190100D01*
X2159500Y1876154D02*
X2166500D01*
X2159500Y1871154D02*
X2166500D01*
X2153500Y1905154D02*
Y1893754D01*
X2154000*
X2160900Y1886854*
X2180000*
X2176600Y1850954D02*
X2176700Y1851054D01*
X2195700Y1908254D02*
X2206413D01*
X2210076Y1904591*
X2219560*
X2180000Y1891854D02*
X2185900D01*
X2190900Y1886854*
X2202000*
G54D57*
X2233700Y1332854D02*
X2234200D01*
X2241000Y1326054*
Y1312154*
X2248300Y1304854*
X2280200*
X2164600Y1435054D02*
X2164700Y1431254D01*
Y1428754*
X2123600Y1491954D02*
Y1498954D01*
X2126300Y1501654*
X2235200*
X2243400Y1493454*
Y1431754*
X2250300Y1424854*
X2280200*
X2197200Y1491954D02*
Y1486104D01*
X2204150Y1479154*
X2234300*
X2237300Y1476154*
Y1375554*
X2248000Y1364854*
X2280200*
X2123400Y1536654D02*
Y1541054D01*
X2126100Y1543754*
X2238200*
X2247700Y1534254*
Y1524954*
X2257800Y1514854*
X2280200*
X2172700Y1555654D02*
Y1561854D01*
X2172900*
X2197100Y1536854D02*
Y1531004D01*
X2202350Y1525754*
X2235400*
X2248900Y1512254*
Y1459254*
X2253300Y1454854*
X2280200*
X2123300Y1619554D02*
Y1625404D01*
X2125550Y1627654*
X2238000*
X2267800Y1657454*
X2280200*
X2196900Y1619454D02*
Y1611654D01*
X2199800Y1608754*
X2238200*
X2243200Y1603754*
Y1555354*
X2253700Y1544854*
X2280200*
X1876200Y1756554D02*
Y1759654D01*
X1880100Y1763554*
Y1767454*
X2063800Y1702454D02*
Y1709254D01*
X2064200*
Y1714254D02*
X2071800D01*
X2084300Y1724254D02*
X2086200D01*
X2084300Y1730654D02*
X2086200Y1728754D01*
Y1724254*
X2079600Y1709254D02*
X2086200D01*
X1821850Y1767254D02*
X1830650Y1776054D01*
X1839800*
X1842200Y1773654*
Y1755554*
X1846200Y1751554*
X1854200*
X2029100Y1787054D02*
Y1789554D01*
X2029200Y1793654*
X2074100Y1780654D02*
Y1787054D01*
X2122400Y1773554D02*
Y1778354D01*
X2124400Y1780354*
X2247300*
X2280200Y1747454*
X2158900Y1791454D02*
Y1797754D01*
X2195200Y1773554D02*
Y1766054D01*
X2198500Y1762754*
X2234900*
X2280200Y1717454*
X2122600Y1850254D02*
Y1856354D01*
X2125600Y1859354*
X2242200*
X2264100Y1837454*
X2280200*
X2122600Y1850054D02*
Y1850254D01*
X2186400Y1870154D02*
X2186900D01*
Y1875954D02*
X2187000Y1876054D01*
X2193700Y1891954D02*
Y1898779D01*
X2195700Y1900779*
Y1908254*
X2193700Y1891954D02*
X2199250Y1891854D01*
X2202000*
Y1886854D02*
X2218800D01*
X2180000Y1881854D02*
X2185200D01*
X2187000Y1880054*
Y1876054*
X2195100Y1851054D02*
Y1844854D01*
X2204100Y1835854*
X2235000*
X2263400Y1807454*
X2280200*
X2218800Y1886854D02*
Y1891517D01*
X2223300Y1896017*
Y1896717*
X2227800Y1886854D02*
X2232900D01*
X2243500Y1897454*
X2280200*
X2227800Y1886854D02*
Y1875954D01*
X2228200*
G54D58*
X1705500Y1742354D02*
Y1743354D01*
X1706000*
X1704500Y1732254D02*
X1705000D01*
X1918500Y1838765D02*
X1921890Y1842154D01*
X1922100*
X1920600Y1796233D02*
Y1772215D01*
X1920761Y1772054*
X1982100Y1813233D02*
X1995100D01*
X1999355Y1808978*
X2005094*
X2005100Y1809054*
X2005000Y1790054D02*
Y1807754D01*
X2005094Y1808978*
X2005000Y1790054D02*
X2006400D01*
Y1765354D02*
Y1772054D01*
Y1777954*
Y1772054D02*
X2014500D01*
X1933000Y1888754D02*
X1935300D01*
X1935400Y1888654*
X1938100Y1891354*
X1933000Y1882554D02*
Y1888754D01*
X1926100*
Y1900754D02*
X1937700D01*
X1938100Y1900354*
X1945400*
G54D59*
X2057700Y1719154D02*
Y1726054D01*
X2059000Y1727354*
Y1731954*
X2063300Y1736254*
X2063800*
X2057700Y1719154D02*
X2064200D01*
Y1719254*
X2045500Y1719154D02*
X2045900Y1719254D01*
X2002800Y1699154D02*
Y1705654D01*
X2005100Y1707954*
X2034600*
X2045900Y1719254*
G54D60*
X1922100Y1842154D02*
X1945400Y1865454D01*
Y1900354*
X1920600Y1796233D02*
X1921021Y1796654D01*
X1940900*
X1949000Y1813233D02*
X1949900D01*
Y1796654*
X1945400Y1900354D02*
X1947500D01*
X1949700Y1902554*
X1950900*
G54D61*
X1980800Y1285154D03*
X2087200Y1280854D03*
X2091400Y1279254D03*
X1876200Y1307254D03*
X1916300Y1307154D03*
X1957200Y1302654D03*
X1926900Y1314654D03*
X1937000Y1314154D03*
X1979600Y1288854D03*
X1977100Y1296254D03*
X1979500Y1293754D03*
X2087300Y1301954D03*
X2091300D03*
X2115600Y1310754D03*
X2089600Y1320454D03*
X2120800Y1310754D03*
X2222100Y1352954D03*
X2217500Y1341454D03*
X2200500Y1326254D03*
X2195100Y1326354D03*
X2200500Y1334254D03*
X2195100D03*
X1890300Y1395154D03*
X1890500Y1398354D03*
X1908000Y1408054D03*
X1904800Y1406354D03*
X1902000Y1404754D03*
X1898900Y1403554D03*
X1893400Y1400054D03*
X1896200Y1401754D03*
X2033200Y1390054D03*
X2036700Y1388254D03*
X2037700Y1385054D03*
X2017800Y1379254D03*
X2013600Y1378254D03*
X2011900Y1375254D03*
X2009300Y1372754D03*
X2007400Y1369854D03*
X2006000Y1366654D03*
X2041800Y1385254D03*
X2117700Y1399454D03*
X2082000Y1393454D03*
X2113600Y1399654D03*
X2106400Y1392054D03*
X2102900D03*
X2183300Y1440254D03*
X2071200Y1523954D03*
X2146900Y1486754D03*
X2147000Y1458454D03*
X2075300Y1523854D03*
X2095700Y1486654D03*
X2211100Y1465754D03*
X2207200Y1482554D03*
X2170100Y1520454D03*
X2156000Y1487354D03*
X2183300Y1447854D03*
X2057100Y1603554D03*
X2023800Y1573354D03*
X2018000Y1570954D03*
X2020300Y1573254D03*
X2026100Y1571054D03*
X2041600Y1570854D03*
X2039500Y1573354D03*
X2036000D03*
X2044800Y1568954D03*
X2043400Y1562854D03*
X2042000Y1581154D03*
X2039700Y1595454D03*
X2021000Y1595554D03*
X2017300Y1593954D03*
X2017200Y1589154D03*
X2017300Y1582154D03*
X2033800Y1570954D03*
X2050400Y1604554D03*
X2002800Y1602654D03*
X2053500Y1602754D03*
X2005900Y1600954D03*
X2008500Y1597754D03*
X2029600Y1577154D03*
X2067600Y1525554D03*
X2069900Y1530954D03*
X2000700Y1599854D03*
X2051400Y1570754D03*
Y1574254D03*
X2151400Y1531754D03*
X2147000Y1586854D03*
X2078100Y1572854D03*
X2072800Y1528454D03*
X2078400D03*
X2210800Y1592454D03*
X2211800Y1536854D03*
X2211700Y1549354D03*
X2175100Y1549054D03*
X2155500Y1550154D03*
X2156000Y1531954D03*
X2191600Y1567154D03*
Y1575154D03*
X1879500Y1670254D03*
X1984300Y1638654D03*
X2002400Y1631854D03*
X2028900Y1607254D03*
X2060500Y1631454D03*
X2047100Y1605854D03*
X2147100Y1614154D03*
X2097300Y1650654D03*
X2095700Y1613954D03*
X2206900Y1612354D03*
X2156100Y1614854D03*
X1991300Y1690654D03*
X2017800Y1713654D03*
X2032800Y1718454D03*
X2027800Y1716954D03*
X2022800Y1715454D03*
X2057700Y1719154D03*
X2045500D03*
X2037800Y1720054D03*
X2045500Y1725254D03*
X2042800Y1721854D03*
X2000300Y1691354D03*
X2166200Y1757154D03*
X1970700Y1811654D03*
Y1816454D03*
X1992700Y1816254D03*
X1992800Y1811454D03*
X2011200Y1801754D03*
X2003500Y1795654D03*
X2003600Y1801854D03*
X2011200Y1795754D03*
X2143900Y1845154D03*
Y1819054D03*
X2141800Y1786654D03*
X2145100Y1768354D03*
X2095200Y1794254D03*
X2100500Y1801854D03*
X2104700Y1800854D03*
X2096600Y1801454D03*
X2206500Y1843854D03*
X2208400Y1824654D03*
X2210100Y1773654D03*
Y1785554D03*
X2166200Y1784754D03*
X2177600Y1803254D03*
Y1811054D03*
X2154100Y1768554D03*
X1690700Y1907754D03*
X1690600Y1896854D03*
X1690700Y1886154D03*
X1690900Y1875454D03*
X1680100Y1875554D03*
Y1886354D03*
X1680300Y1896854D03*
Y1907854D03*
X1768900Y1916554D03*
X2067300Y1876854D03*
X2057000D03*
X2047000D03*
X2036700D03*
X2016300Y1877054D03*
X2026400Y1876854D03*
X2006400Y1877054D03*
X2077100Y1876954D03*
X2151600Y1871154D03*
Y1876154D03*
X2231100Y1904554D03*
X2153800Y1845354D03*
X2159500Y1876154D03*
Y1871154D03*
G54D62*
X1710000Y1292454D03*
X1685700Y1295054D03*
X2135800Y1318254D03*
X2127500Y1333154D03*
X2117200D03*
X2176300Y1348454D03*
Y1317154D03*
X2155300Y1343054D03*
X2155400Y1322054D03*
X2218500Y1311554D03*
X1691900Y1371754D03*
X1709700Y1368454D03*
X2136800Y1398554D03*
X2128400Y1428854D03*
X2135100Y1444354D03*
X2132300Y1392054D03*
X2113800Y1434454D03*
Y1444354D03*
X2189000Y1435154D03*
X2154200Y1369654D03*
X2164600Y1435054D03*
X2176300Y1369654D03*
X2200300Y1444054D03*
X2049300Y1507654D03*
X2003800Y1510354D03*
X2139500Y1514654D03*
X2139800Y1469954D03*
X2111400Y1491954D03*
X2090100Y1491854D03*
X2213800Y1514854D03*
X2214500Y1470054D03*
X2185900Y1491954D03*
X2161300Y1514654D03*
X2162000Y1470054D03*
X2163800Y1491954D03*
X2231100Y1464754D03*
X2230800Y1486654D03*
X2236500Y1514954D03*
X2056600Y1592054D03*
X2025400Y1560254D03*
X2034700Y1560354D03*
X2034800Y1534554D03*
X2044600Y1534654D03*
X2015000Y1534554D03*
X2024800D03*
X2041600Y1590054D03*
X2053300Y1595854D03*
X2003900Y1529354D03*
X2068600Y1537754D03*
X2137700Y1555454D03*
X2140200Y1597654D03*
X2114100Y1536654D03*
X2144100Y1570854D03*
X2095700Y1541654D03*
X2122900Y1572054D03*
X2078700Y1601654D03*
Y1591954D03*
X2122800Y1560854D03*
X2085900Y1530954D03*
X2096700Y1531054D03*
X2214900Y1597554D03*
X2186700Y1536954D03*
X2164700Y1536654D03*
X2172900Y1561854D03*
X2206800Y1562054D03*
X2162100Y1597554D03*
X2206900Y1570954D03*
X2236400Y1536654D03*
X2237100Y1597554D03*
X2047000Y1611554D03*
X2047200Y1631454D03*
X2029100D03*
X2011300Y1631354D03*
Y1611454D03*
X2067100Y1630154D03*
X2029100Y1611554D03*
X2111200Y1619554D03*
X2095700Y1625054D03*
X2185400Y1619554D03*
X2163600D03*
X2237100Y1619354D03*
X1704600Y1712454D03*
X1714700Y1722454D03*
X1714800Y1712454D03*
X1725500Y1712554D03*
X1725600Y1701954D03*
X1714900Y1701854D03*
X1688200Y1743354D03*
X1746500Y1706154D03*
Y1759754D03*
X1689800Y1721954D03*
Y1732154D03*
X1789000Y1745554D03*
X1789100Y1719254D03*
Y1733254D03*
Y1705954D03*
X1775100D03*
X1760300Y1706154D03*
X1789000Y1759954D03*
X1775000Y1759754D03*
X1760200D03*
X1837300Y1732054D03*
X1922500Y1719754D03*
X1922600Y1750054D03*
X1922500Y1740354D03*
Y1729954D03*
X1978200Y1706454D03*
X1970500Y1724154D03*
X2063800Y1702454D03*
X2071800Y1714254D03*
X2006000Y1692754D03*
X2012800D03*
X2137800Y1751554D03*
X2084300Y1730654D03*
X2079600Y1709254D03*
X2093400Y1731154D03*
X2072700Y1702154D03*
X2101200Y1746754D03*
X2211200Y1751554D03*
X2160700D03*
X2234100D03*
X1719400Y1778654D03*
X1729400Y1773454D03*
X1740600Y1778354D03*
Y1833454D03*
X1729600Y1839154D03*
X1719400Y1833754D03*
X1704800Y1833654D03*
X1829700Y1800054D03*
X1819300D03*
X1829700Y1783054D03*
X1819400D03*
X1754600Y1773654D03*
X1770000Y1778354D03*
X1789000Y1773954D03*
X1789100Y1789054D03*
X1789500Y1821354D03*
X1789300Y1805454D03*
X1789000Y1839154D03*
X1769900Y1833454D03*
X1754800Y1839154D03*
X1849700Y1772454D03*
X1837400Y1840954D03*
X1976200Y1844754D03*
X2006400Y1765354D03*
X2014500Y1772054D03*
X2006400Y1777954D03*
X1999200Y1818054D03*
X2029200Y1793654D03*
X2022000Y1808554D03*
X2132300Y1794354D03*
X2139300Y1829654D03*
X2105500Y1779154D03*
X2131100Y1807354D03*
X2074100Y1780654D03*
X2096400Y1779254D03*
X2109000Y1797554D03*
Y1807454D03*
X2096500Y1767954D03*
X2101300Y1787954D03*
X2211600Y1828954D03*
X2184200Y1773654D03*
X2182800Y1798354D03*
X2159900Y1829654D03*
X2161900Y1773554D03*
X2158900Y1797754D03*
X2194000Y1807154D03*
X2234700Y1828954D03*
X2234200Y1773454D03*
X1812600Y1915954D03*
X1829500Y1905154D03*
X1812500Y1895354D03*
X1829200Y1885254D03*
X1812800Y1875554D03*
X1829200Y1865854D03*
X1888700Y1849954D03*
X1904500Y1865854D03*
X1889700Y1875454D03*
X1904500Y1884954D03*
X1889700Y1895454D03*
X1904300Y1904854D03*
X1904200Y1925054D03*
X1889500Y1915654D03*
X1869200Y1925254D03*
X1848900Y1915954D03*
X1969100Y1896354D03*
X1973900Y1902554D03*
X1969100Y1908454D03*
X1933000Y1882554D03*
X2119400Y1887254D03*
X2111800Y1849154D03*
X2090700Y1849254D03*
X2134600Y1869254D03*
X2111400Y1871654D03*
X2138600Y1905254D03*
X2186900Y1875954D03*
X2193700Y1891954D03*
X2183600Y1851054D03*
X2161700Y1850954D03*
X2201900Y1870154D03*
X2212900Y1875954D03*
X2186700Y1903154D03*
X2234700Y1850954D03*
X1829500Y1925354D03*
X0Y0D02*
M02*
