M48
;FILE_FORMAT=2:4
INCH,LZ
FMAT,2
ICI,OFF
;TYPE=PLATED
T1C.012
T2C.02
T3C.035
T4C.037
T5C.045
T6C.06299
T7C.1
%
M72
G90
G93X0Y0
T1C.012F095S3
X03039Y01419
X0344Y01418
X03546Y01493
X03647Y01488
X03849Y01373
X04048Y01309
X04072Y01284
X04073Y01235
X04085Y01198
X05149Y01155
X0515Y01366
X05173Y01551
X0519Y01366
X05191Y01139
X05433Y01454
X05485Y01454
X06228Y0161
X06282Y01609
X06498Y01876
X06452Y01761
X06282Y01689
X06228Y01689
X05454Y02341
X05413Y02343
X05341Y02267
X05306Y02267
X05097Y02281
X04695Y02199
X04654Y02197
X04644Y02229
X04609Y02247
X04455Y02139
X04413Y02129
X04396Y02099
X0437Y02074
X04351Y02045
X04337Y02013
X03266Y02382
X03239Y02364
X03211Y02347
X03182Y0233
X0318Y02298
X03297Y02394
X03325Y0241
X03357Y02427
X05234Y03213
X05746Y03214
X05747Y02931
X05837Y0322
X0611Y02749
X0611Y02825
X06349Y03172
X06388Y03004
X06395Y03715
X06394Y0384
X06028Y03837
X05978Y03551
X05837Y03666
X05832Y03848
X05791Y03664
X05061Y03631
X0503Y03585
X05005Y03631
X04989Y03586
X04976Y03656
X04953Y03602
X04284Y04345
X04305Y04373
X04336Y04356
X04362Y04324
X04449Y04238
X0445Y04286
X0445Y04168
X04457Y04056
X0448Y04079
X04487Y04302
X04515Y0408
X04538Y04057
X04573Y04118
X04615Y04056
X04637Y0408
X04672Y0408
X04674Y04301
X04693Y04055
X04697Y04158
X04711Y03975
X04725Y04036
X04791Y04054
X04791Y04089
X04812Y04374
X04848Y04382
X05058Y04075
X05747Y04215
X06193Y04098
X06193Y04018
X06385Y04271
X06346Y0447
X05838Y04495
X05748Y04488
X0525Y04853
X05234Y04486
X04882Y04661
X04781Y04392
X04748Y04405
X04566Y04419
X04301Y04665
X0412Y04733
X03072Y05049
X0419Y05253
X0428Y0526
X04455Y05483
X04505Y05501
X04555Y05516
X04605Y05531
X04655Y05547
X04705Y05565
X04732Y05599
X04732Y05538
X04854Y05538
X06378Y06083
X06378Y06202
X06053Y06379
X05939Y06194
X05939Y05918
X05818Y06032
X05728Y0603
X05695Y06213
X05324Y06355
X05282Y06365
X05243Y06361
X05229Y06289
X04389Y06304
X04389Y06364
X04313Y06365
X04312Y06303
X01078Y07102
X01186Y07101
X03984Y06511
X03984Y06463
X04204Y06509
X04205Y06461
X04341Y07117
X0444Y07117
X04541Y07115
X04644Y07115
X04747Y07115
X04847Y07115
X0495Y07115
X05048Y07116
X05716Y06798
X05716Y06537
X05793Y07058
X05793Y07108
X05815Y068
X05872Y07108
X05872Y07058
X06053Y06457
X06342Y06785
X06361Y06593
X06588Y07392
X01966Y07512
X01184Y07424
X01184Y07208
X01183Y07315
X0108Y07425
X0108Y07315
X01078Y0721
T2C.02F197S55
X01134Y01297
X01377Y01271
X05449Y01678
X05552Y01678
X05635Y01529
X0583Y01777
X05831Y01567
X0604Y01518
X0604Y01831
X06462Y01462
X0628Y02787
X06167Y02698
X0604Y02043
X05923Y02697
X05819Y02043
X05645Y02332
X05628Y0279
X056Y02267
X05561Y02635
X05415Y0279
X05415Y02691
X01374Y02031
X01196Y02064
X04315Y0345
X0477Y03423
X05178Y03265
X05391Y03266
X05672Y03493
X05675Y03046
X0589Y03493
X05897Y03047
X05915Y03266
X06136Y03266
X06415Y03495
X06422Y03047
X06585Y03213
X06588Y02994
X06642Y03496
X06641Y03713
X06346Y04056
X06345Y03967
X06144Y03716
X06006Y03965
X05924Y03713
X05718Y04055
X05654Y03901
X05506Y04067
X05505Y03955
X05418Y03713
X05244Y03657
X05234Y03763
X05136Y03656
X04963Y03724
X04723Y03693
X04625Y03692
X04624Y0395
X04531Y03949
X04525Y03692
X04427Y03692
X04316Y0364
X0439Y04461
X04568Y04462
X04693Y04247
X04747Y04462
X0481Y04305
X04843Y04267
X05064Y04266
X05064Y04363
X05234Y04597
X05389Y04542
X05679Y04323
X05898Y04322
X05913Y04542
X06131Y04542
X06426Y04322
X06648Y04322
X06648Y0454
X05004Y05368
X04948Y04648
X04915Y05371
X04749Y04661
X04568Y04661
X04405Y05274
X0439Y0466
X04337Y05274
X01533Y05366
X01426Y05365
X01159Y0578
X01175Y05566
X01175Y05668
X01323Y05471
X01424Y05571
X01425Y05471
X01532Y05472
X01742Y05408
X0188Y05408
X02028Y05406
X02167Y05802
X02168Y05406
X02168Y05679
X02168Y05539
X0265Y05667
X03502Y0575
X03502Y05646
X03502Y05544
X03503Y05847
X03982Y05588
X04059Y05411
X04995Y05489
X05073Y05439
X0512Y05653
X05211Y05658
X05289Y05814
X05655Y05862
X05884Y05862
X06389Y05862
X06618Y05862
X06619Y06081
X06119Y06083
X06105Y0633
X05896Y06082
X05866Y06324
X056Y0629
X05367Y06322
X05332Y06138
X0529Y06226
X05242Y06026
X05241Y06139
X05018Y06153
X04569Y06283
X04422Y06067
X04341Y06126
X04341Y06
X02774Y06071
X02574Y06347
X02574Y06177
X02471Y06177
X0247Y06347
X02168Y06237
X02167Y06086
X02167Y05946
X02027Y05944
X01977Y0613
X01879Y05944
X01823Y06083
X01742Y05944
X01683Y0613
X01571Y06081
X01471Y06133
X01325Y06683
X01471Y06684
X01573Y06738
X01683Y06681
X01825Y06738
X01976Y06681
X02167Y06738
X0217Y06401
X02172Y0656
X02651Y06756
X03164Y06846
X04039Y06794
X04269Y06527
X04497Y06432
X05184Y06839
X05367Y06421
X05395Y06838
X05588Y0642
X0567Y06643
X05876Y06643
X05894Y06856
X06113Y06857
X06217Y06418
X06393Y06636
X06624Y06636
X06624Y06856
X06406Y07106
X06296Y07048
X06214Y07266
X06146Y07106
X06144Y07378
X05623Y07039
X05471Y07219
X05391Y07063
X04016Y07372
X03968Y0731
X03607Y07172
X03322Y07196
X03322Y07005
X03174Y07301
X03174Y07101
X02569Y07199
X02569Y07005
X02405Y07102
X02402Y073
X02403Y07506
X02572Y07398
X02572Y076
X02766Y07506
X02969Y07599
X03172Y07503
X03319Y07597
X0332Y07395
X03968Y07431
X05663Y07399
T3C.035F197S55
X011969Y015512
X012969Y015512
X013969Y015512
X014969Y015512
X015969Y015512
X016969Y015512
X017969Y015512
X018969Y015512
X019969Y015512
X020969Y015512
X021969Y015512
X022969Y015512
X023969Y015512
X024969Y015512
X025969Y015512
X026969Y015512
X027969Y015512
X028969Y015512
X029969Y015512
X030969Y015512
X031969Y015512
X032969Y015512
X033969Y015512
X034969Y015512
X035969Y015512
X036969Y015512
X037969Y015512
X038969Y015512
X039969Y015512
X040969Y015512
X041969Y015512
X042969Y015512
X043969Y015512
X044969Y015512
X045969Y015512
X046969Y015512
X047969Y015512
X048969Y015512
X049969Y015512
X050969Y015512
X050969Y016512
X050969Y017512
X049969Y016512
X049969Y017512
X048969Y016512
X048969Y017512
X047969Y016512
X047969Y017512
X046969Y016512
X046969Y017512
X045969Y016512
X045969Y017512
X044969Y016512
X044969Y017512
X043969Y016512
X043969Y017512
X042969Y016512
X042969Y017512
X041969Y016512
X041969Y017512
X040969Y016512
X040969Y017512
X039969Y016512
X039969Y017512
X038969Y016512
X038969Y017512
X037969Y016512
X037969Y017512
X036969Y017512
X036969Y016512
X035969Y017512
X035969Y016512
X034969Y017512
X034969Y016512
X033969Y017512
X033969Y016512
X032969Y017512
X032969Y016512
X031969Y017512
X031969Y016512
X030969Y017512
X030969Y016512
X029969Y017512
X029969Y016512
X028969Y017512
X028969Y016512
X027969Y017512
X027969Y016512
X026969Y017512
X026969Y016512
X025969Y017512
X025969Y016512
X024969Y017512
X024969Y016512
X023969Y016512
X023969Y017512
X022969Y017512
X022969Y016512
X021969Y016512
X021969Y017512
X020969Y017512
X020969Y016512
X019969Y016512
X019969Y017512
X018969Y017512
X018969Y016512
X017969Y017512
X017969Y016512
X016969Y017512
X016969Y016512
X015969Y017512
X015969Y016512
X014969Y017512
X014969Y016512
X013969Y017512
X013969Y016512
X012969Y017512
X012969Y016512
X011969Y016512
X011969Y017512
X011969Y047945
X012969Y047945
X013969Y047945
X014969Y047945
X015969Y047945
X016969Y047945
X017969Y047945
X018969Y047945
X019969Y047945
X020969Y047945
X021969Y047945
X022969Y047945
X023969Y047945
X024969Y047945
X025969Y047945
X026969Y047945
X027969Y047945
X028969Y047945
X029969Y047945
X030969Y047945
X031969Y047945
X032969Y047945
X033969Y047945
X034969Y047945
X035969Y047945
X036969Y047945
X037969Y047945
X038969Y047945
X039969Y047945
X040969Y047945
X041969Y047945
X042969Y047945
X043969Y047945
X044969Y047945
X045969Y047945
X046969Y047945
X047969Y047945
X048969Y047945
X049969Y047945
X050969Y047945
X050969Y048945
X050969Y049945
X049969Y048945
X049969Y049945
X048969Y048945
X048969Y049945
X047969Y048945
X047969Y049945
X046969Y048945
X046969Y049945
X045969Y048945
X045969Y049945
X044969Y048945
X044969Y049945
X043969Y048945
X043969Y049945
X042969Y048945
X042969Y049945
X041969Y048945
X041969Y049945
X040969Y048945
X040969Y049945
X039969Y048945
X039969Y049945
X038969Y048945
X038969Y049945
X037969Y048945
X037969Y049945
X036969Y049945
X036969Y048945
X035969Y049945
X035969Y048945
X034969Y049945
X034969Y048945
X033969Y049945
X033969Y048945
X032969Y049945
X032969Y048945
X031969Y049945
X031969Y048945
X030969Y049945
X030969Y048945
X029969Y049945
X029969Y048945
X028969Y049945
X028969Y048945
X027969Y049945
X027969Y048945
X026969Y049945
X026969Y048945
X025969Y049945
X025969Y048945
X024969Y049945
X024969Y048945
X023969Y048945
X023969Y049945
X022969Y049945
X022969Y048945
X021969Y048945
X021969Y049945
X020969Y049945
X020969Y048945
X019969Y048945
X019969Y049945
X018969Y049945
X018969Y048945
X017969Y049945
X017969Y048945
X016969Y049945
X016969Y048945
X015969Y049945
X015969Y048945
X014969Y049945
X014969Y048945
X013969Y049945
X013969Y048945
X012969Y049945
X012969Y048945
X011969Y048945
X011969Y049945
T4C.037F197S55
X012278Y05365
X013262Y05365
X04959Y05886
X04959Y05971
X04559Y05886
X04559Y05971
X03483Y063088
X026569Y05413
X025191Y05413
X013282Y05993
X012298Y05993
X012071Y06861
X013449Y06861
X03462Y067341
X03462Y068719
X03483Y064072
X037388Y06804
X03767Y064788
X03767Y065772
X038372Y06804
X04098Y065772
X04098Y064788
X02209Y072461
X02209Y073839
X01873Y072461
X01873Y073839
T5C.045F139S55
X01279Y063
X01279Y064
X01279Y065
T6C.06299F089S55
X07079Y01395
X07079Y01695
X07079Y01995
X07079Y02295
X07079Y02595
X07079Y02895
X07079Y03195
X07079Y03495
X07079Y03795
X07079Y04095
X07079Y04621
X07079Y04921
X07079Y05221
X07079Y05521
X07079Y05821
X07079Y06121
X07079Y06421
X07079Y06721
X07079Y07021
X07079Y07321
T7C.1F069S658
X013118Y07314
X014299Y071368
X01548Y07314
M30
